G04 #@! TF.GenerationSoftware,KiCad,Pcbnew,(6.0.1-0)*
G04 #@! TF.CreationDate,2022-03-10T22:00:30-05:00*
G04 #@! TF.ProjectId,Vrm,56726d2e-6b69-4636-9164-5f7063625858,rev?*
G04 #@! TF.SameCoordinates,Original*
G04 #@! TF.FileFunction,Legend,Top*
G04 #@! TF.FilePolarity,Positive*
%FSLAX46Y46*%
G04 Gerber Fmt 4.6, Leading zero omitted, Abs format (unit mm)*
G04 Created by KiCad (PCBNEW (6.0.1-0)) date 2022-03-10 22:00:30*
%MOMM*%
%LPD*%
G01*
G04 APERTURE LIST*
%ADD10C,0.300000*%
%ADD11C,0.150000*%
%ADD12C,0.120000*%
G04 APERTURE END LIST*
D10*
X151455714Y-102048571D02*
X152384285Y-102048571D01*
X151884285Y-102620000D01*
X152098571Y-102620000D01*
X152241428Y-102691428D01*
X152312857Y-102762857D01*
X152384285Y-102905714D01*
X152384285Y-103262857D01*
X152312857Y-103405714D01*
X152241428Y-103477142D01*
X152098571Y-103548571D01*
X151670000Y-103548571D01*
X151527142Y-103477142D01*
X151455714Y-103405714D01*
X153027142Y-103405714D02*
X153098571Y-103477142D01*
X153027142Y-103548571D01*
X152955714Y-103477142D01*
X153027142Y-103405714D01*
X153027142Y-103548571D01*
X153598571Y-102048571D02*
X154527142Y-102048571D01*
X154027142Y-102620000D01*
X154241428Y-102620000D01*
X154384285Y-102691428D01*
X154455714Y-102762857D01*
X154527142Y-102905714D01*
X154527142Y-103262857D01*
X154455714Y-103405714D01*
X154384285Y-103477142D01*
X154241428Y-103548571D01*
X153812857Y-103548571D01*
X153670000Y-103477142D01*
X153598571Y-103405714D01*
X154955714Y-102048571D02*
X155455714Y-103548571D01*
X155955714Y-102048571D01*
X180768571Y-94658571D02*
X179911428Y-94658571D01*
X180340000Y-94658571D02*
X180340000Y-93158571D01*
X180197142Y-93372857D01*
X180054285Y-93515714D01*
X179911428Y-93587142D01*
X142167428Y-139010571D02*
X142240000Y-138938000D01*
X142385142Y-138865428D01*
X142748000Y-138865428D01*
X142893142Y-138938000D01*
X142965714Y-139010571D01*
X143038285Y-139155714D01*
X143038285Y-139300857D01*
X142965714Y-139518571D01*
X142094857Y-140389428D01*
X143038285Y-140389428D01*
X143981714Y-138865428D02*
X144126857Y-138865428D01*
X144272000Y-138938000D01*
X144344571Y-139010571D01*
X144417142Y-139155714D01*
X144489714Y-139446000D01*
X144489714Y-139808857D01*
X144417142Y-140099142D01*
X144344571Y-140244285D01*
X144272000Y-140316857D01*
X144126857Y-140389428D01*
X143981714Y-140389428D01*
X143836571Y-140316857D01*
X143764000Y-140244285D01*
X143691428Y-140099142D01*
X143618857Y-139808857D01*
X143618857Y-139446000D01*
X143691428Y-139155714D01*
X143764000Y-139010571D01*
X143836571Y-138938000D01*
X143981714Y-138865428D01*
X145070285Y-139010571D02*
X145142857Y-138938000D01*
X145288000Y-138865428D01*
X145650857Y-138865428D01*
X145796000Y-138938000D01*
X145868571Y-139010571D01*
X145941142Y-139155714D01*
X145941142Y-139300857D01*
X145868571Y-139518571D01*
X144997714Y-140389428D01*
X145941142Y-140389428D01*
X146521714Y-139010571D02*
X146594285Y-138938000D01*
X146739428Y-138865428D01*
X147102285Y-138865428D01*
X147247428Y-138938000D01*
X147320000Y-139010571D01*
X147392571Y-139155714D01*
X147392571Y-139300857D01*
X147320000Y-139518571D01*
X146449142Y-140389428D01*
X147392571Y-140389428D01*
D11*
X164028380Y-146113333D02*
X163552190Y-146446666D01*
X164028380Y-146684761D02*
X163028380Y-146684761D01*
X163028380Y-146303809D01*
X163076000Y-146208571D01*
X163123619Y-146160952D01*
X163218857Y-146113333D01*
X163361714Y-146113333D01*
X163456952Y-146160952D01*
X163504571Y-146208571D01*
X163552190Y-146303809D01*
X163552190Y-146684761D01*
X163504571Y-145684761D02*
X163504571Y-145351428D01*
X164028380Y-145208571D02*
X164028380Y-145684761D01*
X163028380Y-145684761D01*
X163028380Y-145208571D01*
X163504571Y-144446666D02*
X163504571Y-144780000D01*
X164028380Y-144780000D02*
X163028380Y-144780000D01*
X163028380Y-144303809D01*
X163028380Y-143780000D02*
X163266476Y-143780000D01*
X163171238Y-144018095D02*
X163266476Y-143780000D01*
X163171238Y-143541904D01*
X163456952Y-143922857D02*
X163266476Y-143780000D01*
X163456952Y-143637142D01*
X163028380Y-143018095D02*
X163266476Y-143018095D01*
X163171238Y-143256190D02*
X163266476Y-143018095D01*
X163171238Y-142780000D01*
X163456952Y-143160952D02*
X163266476Y-143018095D01*
X163456952Y-142875238D01*
X209102380Y-133413333D02*
X208626190Y-133746666D01*
X209102380Y-133984761D02*
X208102380Y-133984761D01*
X208102380Y-133603809D01*
X208150000Y-133508571D01*
X208197619Y-133460952D01*
X208292857Y-133413333D01*
X208435714Y-133413333D01*
X208530952Y-133460952D01*
X208578571Y-133508571D01*
X208626190Y-133603809D01*
X208626190Y-133984761D01*
X208578571Y-132984761D02*
X208578571Y-132651428D01*
X209102380Y-132508571D02*
X209102380Y-132984761D01*
X208102380Y-132984761D01*
X208102380Y-132508571D01*
X208578571Y-131746666D02*
X208578571Y-132080000D01*
X209102380Y-132080000D02*
X208102380Y-132080000D01*
X208102380Y-131603809D01*
X208102380Y-131080000D02*
X208340476Y-131080000D01*
X208245238Y-131318095D02*
X208340476Y-131080000D01*
X208245238Y-130841904D01*
X208530952Y-131222857D02*
X208340476Y-131080000D01*
X208530952Y-130937142D01*
X208102380Y-130318095D02*
X208340476Y-130318095D01*
X208245238Y-130556190D02*
X208340476Y-130318095D01*
X208245238Y-130080000D01*
X208530952Y-130460952D02*
X208340476Y-130318095D01*
X208530952Y-130175238D01*
X187982380Y-149923333D02*
X187506190Y-150256666D01*
X187982380Y-150494761D02*
X186982380Y-150494761D01*
X186982380Y-150113809D01*
X187030000Y-150018571D01*
X187077619Y-149970952D01*
X187172857Y-149923333D01*
X187315714Y-149923333D01*
X187410952Y-149970952D01*
X187458571Y-150018571D01*
X187506190Y-150113809D01*
X187506190Y-150494761D01*
X187458571Y-149494761D02*
X187458571Y-149161428D01*
X187982380Y-149018571D02*
X187982380Y-149494761D01*
X186982380Y-149494761D01*
X186982380Y-149018571D01*
X187458571Y-148256666D02*
X187458571Y-148590000D01*
X187982380Y-148590000D02*
X186982380Y-148590000D01*
X186982380Y-148113809D01*
X186982380Y-147590000D02*
X187220476Y-147590000D01*
X187125238Y-147828095D02*
X187220476Y-147590000D01*
X187125238Y-147351904D01*
X187410952Y-147732857D02*
X187220476Y-147590000D01*
X187410952Y-147447142D01*
X186982380Y-146828095D02*
X187220476Y-146828095D01*
X187125238Y-147066190D02*
X187220476Y-146828095D01*
X187125238Y-146590000D01*
X187410952Y-146970952D02*
X187220476Y-146828095D01*
X187410952Y-146685238D01*
X196786666Y-86670380D02*
X196453333Y-86194190D01*
X196215238Y-86670380D02*
X196215238Y-85670380D01*
X196596190Y-85670380D01*
X196691428Y-85718000D01*
X196739047Y-85765619D01*
X196786666Y-85860857D01*
X196786666Y-86003714D01*
X196739047Y-86098952D01*
X196691428Y-86146571D01*
X196596190Y-86194190D01*
X196215238Y-86194190D01*
X197215238Y-86146571D02*
X197548571Y-86146571D01*
X197691428Y-86670380D02*
X197215238Y-86670380D01*
X197215238Y-85670380D01*
X197691428Y-85670380D01*
X198453333Y-86146571D02*
X198120000Y-86146571D01*
X198120000Y-86670380D02*
X198120000Y-85670380D01*
X198596190Y-85670380D01*
X199120000Y-85670380D02*
X199120000Y-85908476D01*
X198881904Y-85813238D02*
X199120000Y-85908476D01*
X199358095Y-85813238D01*
X198977142Y-86098952D02*
X199120000Y-85908476D01*
X199262857Y-86098952D01*
X199881904Y-85670380D02*
X199881904Y-85908476D01*
X199643809Y-85813238D02*
X199881904Y-85908476D01*
X200120000Y-85813238D01*
X199739047Y-86098952D02*
X199881904Y-85908476D01*
X200024761Y-86098952D01*
X133286666Y-56912380D02*
X132953333Y-56436190D01*
X132715238Y-56912380D02*
X132715238Y-55912380D01*
X133096190Y-55912380D01*
X133191428Y-55960000D01*
X133239047Y-56007619D01*
X133286666Y-56102857D01*
X133286666Y-56245714D01*
X133239047Y-56340952D01*
X133191428Y-56388571D01*
X133096190Y-56436190D01*
X132715238Y-56436190D01*
X133715238Y-56388571D02*
X134048571Y-56388571D01*
X134191428Y-56912380D02*
X133715238Y-56912380D01*
X133715238Y-55912380D01*
X134191428Y-55912380D01*
X134953333Y-56388571D02*
X134620000Y-56388571D01*
X134620000Y-56912380D02*
X134620000Y-55912380D01*
X135096190Y-55912380D01*
X135620000Y-55912380D02*
X135620000Y-56150476D01*
X135381904Y-56055238D02*
X135620000Y-56150476D01*
X135858095Y-56055238D01*
X135477142Y-56340952D02*
X135620000Y-56150476D01*
X135762857Y-56340952D01*
X136381904Y-55912380D02*
X136381904Y-56150476D01*
X136143809Y-56055238D02*
X136381904Y-56150476D01*
X136620000Y-56055238D01*
X136239047Y-56340952D02*
X136381904Y-56150476D01*
X136524761Y-56340952D01*
X140906666Y-92752380D02*
X140573333Y-92276190D01*
X140335238Y-92752380D02*
X140335238Y-91752380D01*
X140716190Y-91752380D01*
X140811428Y-91800000D01*
X140859047Y-91847619D01*
X140906666Y-91942857D01*
X140906666Y-92085714D01*
X140859047Y-92180952D01*
X140811428Y-92228571D01*
X140716190Y-92276190D01*
X140335238Y-92276190D01*
X141335238Y-92228571D02*
X141668571Y-92228571D01*
X141811428Y-92752380D02*
X141335238Y-92752380D01*
X141335238Y-91752380D01*
X141811428Y-91752380D01*
X142573333Y-92228571D02*
X142240000Y-92228571D01*
X142240000Y-92752380D02*
X142240000Y-91752380D01*
X142716190Y-91752380D01*
X143240000Y-91752380D02*
X143240000Y-91990476D01*
X143001904Y-91895238D02*
X143240000Y-91990476D01*
X143478095Y-91895238D01*
X143097142Y-92180952D02*
X143240000Y-91990476D01*
X143382857Y-92180952D01*
X144001904Y-91752380D02*
X144001904Y-91990476D01*
X143763809Y-91895238D02*
X144001904Y-91990476D01*
X144240000Y-91895238D01*
X143859047Y-92180952D02*
X144001904Y-91990476D01*
X144144761Y-92180952D01*
X164692380Y-97853333D02*
X164216190Y-98186666D01*
X164692380Y-98424761D02*
X163692380Y-98424761D01*
X163692380Y-98043809D01*
X163740000Y-97948571D01*
X163787619Y-97900952D01*
X163882857Y-97853333D01*
X164025714Y-97853333D01*
X164120952Y-97900952D01*
X164168571Y-97948571D01*
X164216190Y-98043809D01*
X164216190Y-98424761D01*
X164168571Y-97424761D02*
X164168571Y-97091428D01*
X164692380Y-96948571D02*
X164692380Y-97424761D01*
X163692380Y-97424761D01*
X163692380Y-96948571D01*
X164168571Y-96186666D02*
X164168571Y-96520000D01*
X164692380Y-96520000D02*
X163692380Y-96520000D01*
X163692380Y-96043809D01*
X163692380Y-95520000D02*
X163930476Y-95520000D01*
X163835238Y-95758095D02*
X163930476Y-95520000D01*
X163835238Y-95281904D01*
X164120952Y-95662857D02*
X163930476Y-95520000D01*
X164120952Y-95377142D01*
X163692380Y-94758095D02*
X163930476Y-94758095D01*
X163835238Y-94996190D02*
X163930476Y-94758095D01*
X163835238Y-94520000D01*
X164120952Y-94900952D02*
X163930476Y-94758095D01*
X164120952Y-94615238D01*
X168846666Y-134930380D02*
X168513333Y-134454190D01*
X168275238Y-134930380D02*
X168275238Y-133930380D01*
X168656190Y-133930380D01*
X168751428Y-133978000D01*
X168799047Y-134025619D01*
X168846666Y-134120857D01*
X168846666Y-134263714D01*
X168799047Y-134358952D01*
X168751428Y-134406571D01*
X168656190Y-134454190D01*
X168275238Y-134454190D01*
X169275238Y-134406571D02*
X169608571Y-134406571D01*
X169751428Y-134930380D02*
X169275238Y-134930380D01*
X169275238Y-133930380D01*
X169751428Y-133930380D01*
X170513333Y-134406571D02*
X170180000Y-134406571D01*
X170180000Y-134930380D02*
X170180000Y-133930380D01*
X170656190Y-133930380D01*
X171180000Y-133930380D02*
X171180000Y-134168476D01*
X170941904Y-134073238D02*
X171180000Y-134168476D01*
X171418095Y-134073238D01*
X171037142Y-134358952D02*
X171180000Y-134168476D01*
X171322857Y-134358952D01*
X171941904Y-133930380D02*
X171941904Y-134168476D01*
X171703809Y-134073238D02*
X171941904Y-134168476D01*
X172180000Y-134073238D01*
X171799047Y-134358952D02*
X171941904Y-134168476D01*
X172084761Y-134358952D01*
X135826666Y-81732380D02*
X135493333Y-81256190D01*
X135255238Y-81732380D02*
X135255238Y-80732380D01*
X135636190Y-80732380D01*
X135731428Y-80780000D01*
X135779047Y-80827619D01*
X135826666Y-80922857D01*
X135826666Y-81065714D01*
X135779047Y-81160952D01*
X135731428Y-81208571D01*
X135636190Y-81256190D01*
X135255238Y-81256190D01*
X136255238Y-81208571D02*
X136588571Y-81208571D01*
X136731428Y-81732380D02*
X136255238Y-81732380D01*
X136255238Y-80732380D01*
X136731428Y-80732380D01*
X137493333Y-81208571D02*
X137160000Y-81208571D01*
X137160000Y-81732380D02*
X137160000Y-80732380D01*
X137636190Y-80732380D01*
X138160000Y-80732380D02*
X138160000Y-80970476D01*
X137921904Y-80875238D02*
X138160000Y-80970476D01*
X138398095Y-80875238D01*
X138017142Y-81160952D02*
X138160000Y-80970476D01*
X138302857Y-81160952D01*
X138921904Y-80732380D02*
X138921904Y-80970476D01*
X138683809Y-80875238D02*
X138921904Y-80970476D01*
X139160000Y-80875238D01*
X138779047Y-81160952D02*
X138921904Y-80970476D01*
X139064761Y-81160952D01*
X182112380Y-101091904D02*
X182921904Y-101091904D01*
X183017142Y-101044285D01*
X183064761Y-100996666D01*
X183112380Y-100901428D01*
X183112380Y-100710952D01*
X183064761Y-100615714D01*
X183017142Y-100568095D01*
X182921904Y-100520476D01*
X182112380Y-100520476D01*
X183112380Y-99520476D02*
X183112380Y-100091904D01*
X183112380Y-99806190D02*
X182112380Y-99806190D01*
X182255238Y-99901428D01*
X182350476Y-99996666D01*
X182398095Y-100091904D01*
X161226666Y-113102380D02*
X160893333Y-112626190D01*
X160655238Y-113102380D02*
X160655238Y-112102380D01*
X161036190Y-112102380D01*
X161131428Y-112150000D01*
X161179047Y-112197619D01*
X161226666Y-112292857D01*
X161226666Y-112435714D01*
X161179047Y-112530952D01*
X161131428Y-112578571D01*
X161036190Y-112626190D01*
X160655238Y-112626190D01*
X161655238Y-112578571D02*
X161988571Y-112578571D01*
X162131428Y-113102380D02*
X161655238Y-113102380D01*
X161655238Y-112102380D01*
X162131428Y-112102380D01*
X162893333Y-112578571D02*
X162560000Y-112578571D01*
X162560000Y-113102380D02*
X162560000Y-112102380D01*
X163036190Y-112102380D01*
X163560000Y-112102380D02*
X163560000Y-112340476D01*
X163321904Y-112245238D02*
X163560000Y-112340476D01*
X163798095Y-112245238D01*
X163417142Y-112530952D02*
X163560000Y-112340476D01*
X163702857Y-112530952D01*
X164321904Y-112102380D02*
X164321904Y-112340476D01*
X164083809Y-112245238D02*
X164321904Y-112340476D01*
X164560000Y-112245238D01*
X164179047Y-112530952D02*
X164321904Y-112340476D01*
X164464761Y-112530952D01*
X153606666Y-117292380D02*
X153273333Y-116816190D01*
X153035238Y-117292380D02*
X153035238Y-116292380D01*
X153416190Y-116292380D01*
X153511428Y-116340000D01*
X153559047Y-116387619D01*
X153606666Y-116482857D01*
X153606666Y-116625714D01*
X153559047Y-116720952D01*
X153511428Y-116768571D01*
X153416190Y-116816190D01*
X153035238Y-116816190D01*
X154035238Y-116768571D02*
X154368571Y-116768571D01*
X154511428Y-117292380D02*
X154035238Y-117292380D01*
X154035238Y-116292380D01*
X154511428Y-116292380D01*
X155273333Y-116768571D02*
X154940000Y-116768571D01*
X154940000Y-117292380D02*
X154940000Y-116292380D01*
X155416190Y-116292380D01*
X155940000Y-116292380D02*
X155940000Y-116530476D01*
X155701904Y-116435238D02*
X155940000Y-116530476D01*
X156178095Y-116435238D01*
X155797142Y-116720952D02*
X155940000Y-116530476D01*
X156082857Y-116720952D01*
X156701904Y-116292380D02*
X156701904Y-116530476D01*
X156463809Y-116435238D02*
X156701904Y-116530476D01*
X156940000Y-116435238D01*
X156559047Y-116720952D02*
X156701904Y-116530476D01*
X156844761Y-116720952D01*
X144782380Y-113133333D02*
X144306190Y-113466666D01*
X144782380Y-113704761D02*
X143782380Y-113704761D01*
X143782380Y-113323809D01*
X143830000Y-113228571D01*
X143877619Y-113180952D01*
X143972857Y-113133333D01*
X144115714Y-113133333D01*
X144210952Y-113180952D01*
X144258571Y-113228571D01*
X144306190Y-113323809D01*
X144306190Y-113704761D01*
X144258571Y-112704761D02*
X144258571Y-112371428D01*
X144782380Y-112228571D02*
X144782380Y-112704761D01*
X143782380Y-112704761D01*
X143782380Y-112228571D01*
X144258571Y-111466666D02*
X144258571Y-111800000D01*
X144782380Y-111800000D02*
X143782380Y-111800000D01*
X143782380Y-111323809D01*
X143782380Y-110800000D02*
X144020476Y-110800000D01*
X143925238Y-111038095D02*
X144020476Y-110800000D01*
X143925238Y-110561904D01*
X144210952Y-110942857D02*
X144020476Y-110800000D01*
X144210952Y-110657142D01*
X143782380Y-110038095D02*
X144020476Y-110038095D01*
X143925238Y-110276190D02*
X144020476Y-110038095D01*
X143925238Y-109800000D01*
X144210952Y-110180952D02*
X144020476Y-110038095D01*
X144210952Y-109895238D01*
X162152380Y-107063333D02*
X161676190Y-107396666D01*
X162152380Y-107634761D02*
X161152380Y-107634761D01*
X161152380Y-107253809D01*
X161200000Y-107158571D01*
X161247619Y-107110952D01*
X161342857Y-107063333D01*
X161485714Y-107063333D01*
X161580952Y-107110952D01*
X161628571Y-107158571D01*
X161676190Y-107253809D01*
X161676190Y-107634761D01*
X161628571Y-106634761D02*
X161628571Y-106301428D01*
X162152380Y-106158571D02*
X162152380Y-106634761D01*
X161152380Y-106634761D01*
X161152380Y-106158571D01*
X161628571Y-105396666D02*
X161628571Y-105730000D01*
X162152380Y-105730000D02*
X161152380Y-105730000D01*
X161152380Y-105253809D01*
X161152380Y-104730000D02*
X161390476Y-104730000D01*
X161295238Y-104968095D02*
X161390476Y-104730000D01*
X161295238Y-104491904D01*
X161580952Y-104872857D02*
X161390476Y-104730000D01*
X161580952Y-104587142D01*
X161152380Y-103968095D02*
X161390476Y-103968095D01*
X161295238Y-104206190D02*
X161390476Y-103968095D01*
X161295238Y-103730000D01*
X161580952Y-104110952D02*
X161390476Y-103968095D01*
X161580952Y-103825238D01*
X172336666Y-93572380D02*
X172003333Y-93096190D01*
X171765238Y-93572380D02*
X171765238Y-92572380D01*
X172146190Y-92572380D01*
X172241428Y-92620000D01*
X172289047Y-92667619D01*
X172336666Y-92762857D01*
X172336666Y-92905714D01*
X172289047Y-93000952D01*
X172241428Y-93048571D01*
X172146190Y-93096190D01*
X171765238Y-93096190D01*
X172765238Y-93048571D02*
X173098571Y-93048571D01*
X173241428Y-93572380D02*
X172765238Y-93572380D01*
X172765238Y-92572380D01*
X173241428Y-92572380D01*
X174003333Y-93048571D02*
X173670000Y-93048571D01*
X173670000Y-93572380D02*
X173670000Y-92572380D01*
X174146190Y-92572380D01*
X174670000Y-92572380D02*
X174670000Y-92810476D01*
X174431904Y-92715238D02*
X174670000Y-92810476D01*
X174908095Y-92715238D01*
X174527142Y-93000952D02*
X174670000Y-92810476D01*
X174812857Y-93000952D01*
X175431904Y-92572380D02*
X175431904Y-92810476D01*
X175193809Y-92715238D02*
X175431904Y-92810476D01*
X175670000Y-92715238D01*
X175289047Y-93000952D02*
X175431904Y-92810476D01*
X175574761Y-93000952D01*
X166296666Y-56862380D02*
X165963333Y-56386190D01*
X165725238Y-56862380D02*
X165725238Y-55862380D01*
X166106190Y-55862380D01*
X166201428Y-55910000D01*
X166249047Y-55957619D01*
X166296666Y-56052857D01*
X166296666Y-56195714D01*
X166249047Y-56290952D01*
X166201428Y-56338571D01*
X166106190Y-56386190D01*
X165725238Y-56386190D01*
X166725238Y-56338571D02*
X167058571Y-56338571D01*
X167201428Y-56862380D02*
X166725238Y-56862380D01*
X166725238Y-55862380D01*
X167201428Y-55862380D01*
X167963333Y-56338571D02*
X167630000Y-56338571D01*
X167630000Y-56862380D02*
X167630000Y-55862380D01*
X168106190Y-55862380D01*
X168630000Y-55862380D02*
X168630000Y-56100476D01*
X168391904Y-56005238D02*
X168630000Y-56100476D01*
X168868095Y-56005238D01*
X168487142Y-56290952D02*
X168630000Y-56100476D01*
X168772857Y-56290952D01*
X169391904Y-55862380D02*
X169391904Y-56100476D01*
X169153809Y-56005238D02*
X169391904Y-56100476D01*
X169630000Y-56005238D01*
X169249047Y-56290952D02*
X169391904Y-56100476D01*
X169534761Y-56290952D01*
X145986666Y-66492380D02*
X145653333Y-66016190D01*
X145415238Y-66492380D02*
X145415238Y-65492380D01*
X145796190Y-65492380D01*
X145891428Y-65540000D01*
X145939047Y-65587619D01*
X145986666Y-65682857D01*
X145986666Y-65825714D01*
X145939047Y-65920952D01*
X145891428Y-65968571D01*
X145796190Y-66016190D01*
X145415238Y-66016190D01*
X146415238Y-65968571D02*
X146748571Y-65968571D01*
X146891428Y-66492380D02*
X146415238Y-66492380D01*
X146415238Y-65492380D01*
X146891428Y-65492380D01*
X147653333Y-65968571D02*
X147320000Y-65968571D01*
X147320000Y-66492380D02*
X147320000Y-65492380D01*
X147796190Y-65492380D01*
X148320000Y-65492380D02*
X148320000Y-65730476D01*
X148081904Y-65635238D02*
X148320000Y-65730476D01*
X148558095Y-65635238D01*
X148177142Y-65920952D02*
X148320000Y-65730476D01*
X148462857Y-65920952D01*
X149081904Y-65492380D02*
X149081904Y-65730476D01*
X148843809Y-65635238D02*
X149081904Y-65730476D01*
X149320000Y-65635238D01*
X148939047Y-65920952D02*
X149081904Y-65730476D01*
X149224761Y-65920952D01*
X189272380Y-96263333D02*
X188796190Y-96596666D01*
X189272380Y-96834761D02*
X188272380Y-96834761D01*
X188272380Y-96453809D01*
X188320000Y-96358571D01*
X188367619Y-96310952D01*
X188462857Y-96263333D01*
X188605714Y-96263333D01*
X188700952Y-96310952D01*
X188748571Y-96358571D01*
X188796190Y-96453809D01*
X188796190Y-96834761D01*
X188748571Y-95834761D02*
X188748571Y-95501428D01*
X189272380Y-95358571D02*
X189272380Y-95834761D01*
X188272380Y-95834761D01*
X188272380Y-95358571D01*
X188748571Y-94596666D02*
X188748571Y-94930000D01*
X189272380Y-94930000D02*
X188272380Y-94930000D01*
X188272380Y-94453809D01*
X188272380Y-93930000D02*
X188510476Y-93930000D01*
X188415238Y-94168095D02*
X188510476Y-93930000D01*
X188415238Y-93691904D01*
X188700952Y-94072857D02*
X188510476Y-93930000D01*
X188700952Y-93787142D01*
X188272380Y-93168095D02*
X188510476Y-93168095D01*
X188415238Y-93406190D02*
X188510476Y-93168095D01*
X188415238Y-92930000D01*
X188700952Y-93310952D02*
X188510476Y-93168095D01*
X188700952Y-93025238D01*
X177416666Y-113072380D02*
X177083333Y-112596190D01*
X176845238Y-113072380D02*
X176845238Y-112072380D01*
X177226190Y-112072380D01*
X177321428Y-112120000D01*
X177369047Y-112167619D01*
X177416666Y-112262857D01*
X177416666Y-112405714D01*
X177369047Y-112500952D01*
X177321428Y-112548571D01*
X177226190Y-112596190D01*
X176845238Y-112596190D01*
X177845238Y-112548571D02*
X178178571Y-112548571D01*
X178321428Y-113072380D02*
X177845238Y-113072380D01*
X177845238Y-112072380D01*
X178321428Y-112072380D01*
X179083333Y-112548571D02*
X178750000Y-112548571D01*
X178750000Y-113072380D02*
X178750000Y-112072380D01*
X179226190Y-112072380D01*
X179750000Y-112072380D02*
X179750000Y-112310476D01*
X179511904Y-112215238D02*
X179750000Y-112310476D01*
X179988095Y-112215238D01*
X179607142Y-112500952D02*
X179750000Y-112310476D01*
X179892857Y-112500952D01*
X180511904Y-112072380D02*
X180511904Y-112310476D01*
X180273809Y-112215238D02*
X180511904Y-112310476D01*
X180750000Y-112215238D01*
X180369047Y-112500952D02*
X180511904Y-112310476D01*
X180654761Y-112500952D01*
X186626666Y-76510380D02*
X186293333Y-76034190D01*
X186055238Y-76510380D02*
X186055238Y-75510380D01*
X186436190Y-75510380D01*
X186531428Y-75558000D01*
X186579047Y-75605619D01*
X186626666Y-75700857D01*
X186626666Y-75843714D01*
X186579047Y-75938952D01*
X186531428Y-75986571D01*
X186436190Y-76034190D01*
X186055238Y-76034190D01*
X187055238Y-75986571D02*
X187388571Y-75986571D01*
X187531428Y-76510380D02*
X187055238Y-76510380D01*
X187055238Y-75510380D01*
X187531428Y-75510380D01*
X188293333Y-75986571D02*
X187960000Y-75986571D01*
X187960000Y-76510380D02*
X187960000Y-75510380D01*
X188436190Y-75510380D01*
X188960000Y-75510380D02*
X188960000Y-75748476D01*
X188721904Y-75653238D02*
X188960000Y-75748476D01*
X189198095Y-75653238D01*
X188817142Y-75938952D02*
X188960000Y-75748476D01*
X189102857Y-75938952D01*
X189721904Y-75510380D02*
X189721904Y-75748476D01*
X189483809Y-75653238D02*
X189721904Y-75748476D01*
X189960000Y-75653238D01*
X189579047Y-75938952D02*
X189721904Y-75748476D01*
X189864761Y-75938952D01*
X214566666Y-56912380D02*
X214233333Y-56436190D01*
X213995238Y-56912380D02*
X213995238Y-55912380D01*
X214376190Y-55912380D01*
X214471428Y-55960000D01*
X214519047Y-56007619D01*
X214566666Y-56102857D01*
X214566666Y-56245714D01*
X214519047Y-56340952D01*
X214471428Y-56388571D01*
X214376190Y-56436190D01*
X213995238Y-56436190D01*
X214995238Y-56388571D02*
X215328571Y-56388571D01*
X215471428Y-56912380D02*
X214995238Y-56912380D01*
X214995238Y-55912380D01*
X215471428Y-55912380D01*
X216233333Y-56388571D02*
X215900000Y-56388571D01*
X215900000Y-56912380D02*
X215900000Y-55912380D01*
X216376190Y-55912380D01*
X216900000Y-55912380D02*
X216900000Y-56150476D01*
X216661904Y-56055238D02*
X216900000Y-56150476D01*
X217138095Y-56055238D01*
X216757142Y-56340952D02*
X216900000Y-56150476D01*
X217042857Y-56340952D01*
X217661904Y-55912380D02*
X217661904Y-56150476D01*
X217423809Y-56055238D02*
X217661904Y-56150476D01*
X217900000Y-56055238D01*
X217519047Y-56340952D02*
X217661904Y-56150476D01*
X217804761Y-56340952D01*
X133286666Y-143272380D02*
X132953333Y-142796190D01*
X132715238Y-143272380D02*
X132715238Y-142272380D01*
X133096190Y-142272380D01*
X133191428Y-142320000D01*
X133239047Y-142367619D01*
X133286666Y-142462857D01*
X133286666Y-142605714D01*
X133239047Y-142700952D01*
X133191428Y-142748571D01*
X133096190Y-142796190D01*
X132715238Y-142796190D01*
X133715238Y-142748571D02*
X134048571Y-142748571D01*
X134191428Y-143272380D02*
X133715238Y-143272380D01*
X133715238Y-142272380D01*
X134191428Y-142272380D01*
X134953333Y-142748571D02*
X134620000Y-142748571D01*
X134620000Y-143272380D02*
X134620000Y-142272380D01*
X135096190Y-142272380D01*
X135620000Y-142272380D02*
X135620000Y-142510476D01*
X135381904Y-142415238D02*
X135620000Y-142510476D01*
X135858095Y-142415238D01*
X135477142Y-142700952D02*
X135620000Y-142510476D01*
X135762857Y-142700952D01*
X136381904Y-142272380D02*
X136381904Y-142510476D01*
X136143809Y-142415238D02*
X136381904Y-142510476D01*
X136620000Y-142415238D01*
X136239047Y-142700952D02*
X136381904Y-142510476D01*
X136524761Y-142700952D01*
X167232380Y-97853333D02*
X166756190Y-98186666D01*
X167232380Y-98424761D02*
X166232380Y-98424761D01*
X166232380Y-98043809D01*
X166280000Y-97948571D01*
X166327619Y-97900952D01*
X166422857Y-97853333D01*
X166565714Y-97853333D01*
X166660952Y-97900952D01*
X166708571Y-97948571D01*
X166756190Y-98043809D01*
X166756190Y-98424761D01*
X166708571Y-97424761D02*
X166708571Y-97091428D01*
X167232380Y-96948571D02*
X167232380Y-97424761D01*
X166232380Y-97424761D01*
X166232380Y-96948571D01*
X166708571Y-96186666D02*
X166708571Y-96520000D01*
X167232380Y-96520000D02*
X166232380Y-96520000D01*
X166232380Y-96043809D01*
X166232380Y-95520000D02*
X166470476Y-95520000D01*
X166375238Y-95758095D02*
X166470476Y-95520000D01*
X166375238Y-95281904D01*
X166660952Y-95662857D02*
X166470476Y-95520000D01*
X166660952Y-95377142D01*
X166232380Y-94758095D02*
X166470476Y-94758095D01*
X166375238Y-94996190D02*
X166470476Y-94758095D01*
X166375238Y-94520000D01*
X166660952Y-94900952D02*
X166470476Y-94758095D01*
X166660952Y-94615238D01*
X194246666Y-97862380D02*
X193913333Y-97386190D01*
X193675238Y-97862380D02*
X193675238Y-96862380D01*
X194056190Y-96862380D01*
X194151428Y-96910000D01*
X194199047Y-96957619D01*
X194246666Y-97052857D01*
X194246666Y-97195714D01*
X194199047Y-97290952D01*
X194151428Y-97338571D01*
X194056190Y-97386190D01*
X193675238Y-97386190D01*
X194675238Y-97338571D02*
X195008571Y-97338571D01*
X195151428Y-97862380D02*
X194675238Y-97862380D01*
X194675238Y-96862380D01*
X195151428Y-96862380D01*
X195913333Y-97338571D02*
X195580000Y-97338571D01*
X195580000Y-97862380D02*
X195580000Y-96862380D01*
X196056190Y-96862380D01*
X196580000Y-96862380D02*
X196580000Y-97100476D01*
X196341904Y-97005238D02*
X196580000Y-97100476D01*
X196818095Y-97005238D01*
X196437142Y-97290952D02*
X196580000Y-97100476D01*
X196722857Y-97290952D01*
X197341904Y-96862380D02*
X197341904Y-97100476D01*
X197103809Y-97005238D02*
X197341904Y-97100476D01*
X197580000Y-97005238D01*
X197199047Y-97290952D02*
X197341904Y-97100476D01*
X197484761Y-97290952D01*
X184222380Y-138493333D02*
X183746190Y-138826666D01*
X184222380Y-139064761D02*
X183222380Y-139064761D01*
X183222380Y-138683809D01*
X183270000Y-138588571D01*
X183317619Y-138540952D01*
X183412857Y-138493333D01*
X183555714Y-138493333D01*
X183650952Y-138540952D01*
X183698571Y-138588571D01*
X183746190Y-138683809D01*
X183746190Y-139064761D01*
X183698571Y-138064761D02*
X183698571Y-137731428D01*
X184222380Y-137588571D02*
X184222380Y-138064761D01*
X183222380Y-138064761D01*
X183222380Y-137588571D01*
X183698571Y-136826666D02*
X183698571Y-137160000D01*
X184222380Y-137160000D02*
X183222380Y-137160000D01*
X183222380Y-136683809D01*
X183222380Y-136160000D02*
X183460476Y-136160000D01*
X183365238Y-136398095D02*
X183460476Y-136160000D01*
X183365238Y-135921904D01*
X183650952Y-136302857D02*
X183460476Y-136160000D01*
X183650952Y-136017142D01*
X183222380Y-135398095D02*
X183460476Y-135398095D01*
X183365238Y-135636190D02*
X183460476Y-135398095D01*
X183365238Y-135160000D01*
X183650952Y-135540952D02*
X183460476Y-135398095D01*
X183650952Y-135255238D01*
X191706666Y-139292380D02*
X191373333Y-138816190D01*
X191135238Y-139292380D02*
X191135238Y-138292380D01*
X191516190Y-138292380D01*
X191611428Y-138340000D01*
X191659047Y-138387619D01*
X191706666Y-138482857D01*
X191706666Y-138625714D01*
X191659047Y-138720952D01*
X191611428Y-138768571D01*
X191516190Y-138816190D01*
X191135238Y-138816190D01*
X192135238Y-138768571D02*
X192468571Y-138768571D01*
X192611428Y-139292380D02*
X192135238Y-139292380D01*
X192135238Y-138292380D01*
X192611428Y-138292380D01*
X193373333Y-138768571D02*
X193040000Y-138768571D01*
X193040000Y-139292380D02*
X193040000Y-138292380D01*
X193516190Y-138292380D01*
X194040000Y-138292380D02*
X194040000Y-138530476D01*
X193801904Y-138435238D02*
X194040000Y-138530476D01*
X194278095Y-138435238D01*
X193897142Y-138720952D02*
X194040000Y-138530476D01*
X194182857Y-138720952D01*
X194801904Y-138292380D02*
X194801904Y-138530476D01*
X194563809Y-138435238D02*
X194801904Y-138530476D01*
X195040000Y-138435238D01*
X194659047Y-138720952D02*
X194801904Y-138530476D01*
X194944761Y-138720952D01*
X164692380Y-107063333D02*
X164216190Y-107396666D01*
X164692380Y-107634761D02*
X163692380Y-107634761D01*
X163692380Y-107253809D01*
X163740000Y-107158571D01*
X163787619Y-107110952D01*
X163882857Y-107063333D01*
X164025714Y-107063333D01*
X164120952Y-107110952D01*
X164168571Y-107158571D01*
X164216190Y-107253809D01*
X164216190Y-107634761D01*
X164168571Y-106634761D02*
X164168571Y-106301428D01*
X164692380Y-106158571D02*
X164692380Y-106634761D01*
X163692380Y-106634761D01*
X163692380Y-106158571D01*
X164168571Y-105396666D02*
X164168571Y-105730000D01*
X164692380Y-105730000D02*
X163692380Y-105730000D01*
X163692380Y-105253809D01*
X163692380Y-104730000D02*
X163930476Y-104730000D01*
X163835238Y-104968095D02*
X163930476Y-104730000D01*
X163835238Y-104491904D01*
X164120952Y-104872857D02*
X163930476Y-104730000D01*
X164120952Y-104587142D01*
X163692380Y-103968095D02*
X163930476Y-103968095D01*
X163835238Y-104206190D02*
X163930476Y-103968095D01*
X163835238Y-103730000D01*
X164120952Y-104110952D02*
X163930476Y-103968095D01*
X164120952Y-103825238D01*
X201866666Y-105482380D02*
X201533333Y-105006190D01*
X201295238Y-105482380D02*
X201295238Y-104482380D01*
X201676190Y-104482380D01*
X201771428Y-104530000D01*
X201819047Y-104577619D01*
X201866666Y-104672857D01*
X201866666Y-104815714D01*
X201819047Y-104910952D01*
X201771428Y-104958571D01*
X201676190Y-105006190D01*
X201295238Y-105006190D01*
X202295238Y-104958571D02*
X202628571Y-104958571D01*
X202771428Y-105482380D02*
X202295238Y-105482380D01*
X202295238Y-104482380D01*
X202771428Y-104482380D01*
X203533333Y-104958571D02*
X203200000Y-104958571D01*
X203200000Y-105482380D02*
X203200000Y-104482380D01*
X203676190Y-104482380D01*
X204200000Y-104482380D02*
X204200000Y-104720476D01*
X203961904Y-104625238D02*
X204200000Y-104720476D01*
X204438095Y-104625238D01*
X204057142Y-104910952D02*
X204200000Y-104720476D01*
X204342857Y-104910952D01*
X204961904Y-104482380D02*
X204961904Y-104720476D01*
X204723809Y-104625238D02*
X204961904Y-104720476D01*
X205200000Y-104625238D01*
X204819047Y-104910952D02*
X204961904Y-104720476D01*
X205104761Y-104910952D01*
X172336666Y-91032380D02*
X172003333Y-90556190D01*
X171765238Y-91032380D02*
X171765238Y-90032380D01*
X172146190Y-90032380D01*
X172241428Y-90080000D01*
X172289047Y-90127619D01*
X172336666Y-90222857D01*
X172336666Y-90365714D01*
X172289047Y-90460952D01*
X172241428Y-90508571D01*
X172146190Y-90556190D01*
X171765238Y-90556190D01*
X172765238Y-90508571D02*
X173098571Y-90508571D01*
X173241428Y-91032380D02*
X172765238Y-91032380D01*
X172765238Y-90032380D01*
X173241428Y-90032380D01*
X174003333Y-90508571D02*
X173670000Y-90508571D01*
X173670000Y-91032380D02*
X173670000Y-90032380D01*
X174146190Y-90032380D01*
X174670000Y-90032380D02*
X174670000Y-90270476D01*
X174431904Y-90175238D02*
X174670000Y-90270476D01*
X174908095Y-90175238D01*
X174527142Y-90460952D02*
X174670000Y-90270476D01*
X174812857Y-90460952D01*
X175431904Y-90032380D02*
X175431904Y-90270476D01*
X175193809Y-90175238D02*
X175431904Y-90270476D01*
X175670000Y-90175238D01*
X175289047Y-90460952D02*
X175431904Y-90270476D01*
X175574761Y-90460952D01*
X201866666Y-107132380D02*
X201533333Y-106656190D01*
X201295238Y-107132380D02*
X201295238Y-106132380D01*
X201676190Y-106132380D01*
X201771428Y-106180000D01*
X201819047Y-106227619D01*
X201866666Y-106322857D01*
X201866666Y-106465714D01*
X201819047Y-106560952D01*
X201771428Y-106608571D01*
X201676190Y-106656190D01*
X201295238Y-106656190D01*
X202295238Y-106608571D02*
X202628571Y-106608571D01*
X202771428Y-107132380D02*
X202295238Y-107132380D01*
X202295238Y-106132380D01*
X202771428Y-106132380D01*
X203533333Y-106608571D02*
X203200000Y-106608571D01*
X203200000Y-107132380D02*
X203200000Y-106132380D01*
X203676190Y-106132380D01*
X204200000Y-106132380D02*
X204200000Y-106370476D01*
X203961904Y-106275238D02*
X204200000Y-106370476D01*
X204438095Y-106275238D01*
X204057142Y-106560952D02*
X204200000Y-106370476D01*
X204342857Y-106560952D01*
X204961904Y-106132380D02*
X204961904Y-106370476D01*
X204723809Y-106275238D02*
X204961904Y-106370476D01*
X205200000Y-106275238D01*
X204819047Y-106560952D02*
X204961904Y-106370476D01*
X205104761Y-106560952D01*
X176466666Y-134930380D02*
X176133333Y-134454190D01*
X175895238Y-134930380D02*
X175895238Y-133930380D01*
X176276190Y-133930380D01*
X176371428Y-133978000D01*
X176419047Y-134025619D01*
X176466666Y-134120857D01*
X176466666Y-134263714D01*
X176419047Y-134358952D01*
X176371428Y-134406571D01*
X176276190Y-134454190D01*
X175895238Y-134454190D01*
X176895238Y-134406571D02*
X177228571Y-134406571D01*
X177371428Y-134930380D02*
X176895238Y-134930380D01*
X176895238Y-133930380D01*
X177371428Y-133930380D01*
X178133333Y-134406571D02*
X177800000Y-134406571D01*
X177800000Y-134930380D02*
X177800000Y-133930380D01*
X178276190Y-133930380D01*
X178800000Y-133930380D02*
X178800000Y-134168476D01*
X178561904Y-134073238D02*
X178800000Y-134168476D01*
X179038095Y-134073238D01*
X178657142Y-134358952D02*
X178800000Y-134168476D01*
X178942857Y-134358952D01*
X179561904Y-133930380D02*
X179561904Y-134168476D01*
X179323809Y-134073238D02*
X179561904Y-134168476D01*
X179800000Y-134073238D01*
X179419047Y-134358952D02*
X179561904Y-134168476D01*
X179704761Y-134358952D01*
X214566666Y-143272380D02*
X214233333Y-142796190D01*
X213995238Y-143272380D02*
X213995238Y-142272380D01*
X214376190Y-142272380D01*
X214471428Y-142320000D01*
X214519047Y-142367619D01*
X214566666Y-142462857D01*
X214566666Y-142605714D01*
X214519047Y-142700952D01*
X214471428Y-142748571D01*
X214376190Y-142796190D01*
X213995238Y-142796190D01*
X214995238Y-142748571D02*
X215328571Y-142748571D01*
X215471428Y-143272380D02*
X214995238Y-143272380D01*
X214995238Y-142272380D01*
X215471428Y-142272380D01*
X216233333Y-142748571D02*
X215900000Y-142748571D01*
X215900000Y-143272380D02*
X215900000Y-142272380D01*
X216376190Y-142272380D01*
X216900000Y-142272380D02*
X216900000Y-142510476D01*
X216661904Y-142415238D02*
X216900000Y-142510476D01*
X217138095Y-142415238D01*
X216757142Y-142700952D02*
X216900000Y-142510476D01*
X217042857Y-142700952D01*
X217661904Y-142272380D02*
X217661904Y-142510476D01*
X217423809Y-142415238D02*
X217661904Y-142510476D01*
X217900000Y-142415238D01*
X217519047Y-142700952D02*
X217661904Y-142510476D01*
X217804761Y-142700952D01*
X167232380Y-107063333D02*
X166756190Y-107396666D01*
X167232380Y-107634761D02*
X166232380Y-107634761D01*
X166232380Y-107253809D01*
X166280000Y-107158571D01*
X166327619Y-107110952D01*
X166422857Y-107063333D01*
X166565714Y-107063333D01*
X166660952Y-107110952D01*
X166708571Y-107158571D01*
X166756190Y-107253809D01*
X166756190Y-107634761D01*
X166708571Y-106634761D02*
X166708571Y-106301428D01*
X167232380Y-106158571D02*
X167232380Y-106634761D01*
X166232380Y-106634761D01*
X166232380Y-106158571D01*
X166708571Y-105396666D02*
X166708571Y-105730000D01*
X167232380Y-105730000D02*
X166232380Y-105730000D01*
X166232380Y-105253809D01*
X166232380Y-104730000D02*
X166470476Y-104730000D01*
X166375238Y-104968095D02*
X166470476Y-104730000D01*
X166375238Y-104491904D01*
X166660952Y-104872857D02*
X166470476Y-104730000D01*
X166660952Y-104587142D01*
X166232380Y-103968095D02*
X166470476Y-103968095D01*
X166375238Y-104206190D02*
X166470476Y-103968095D01*
X166375238Y-103730000D01*
X166660952Y-104110952D02*
X166470476Y-103968095D01*
X166660952Y-103825238D01*
X140906666Y-72432380D02*
X140573333Y-71956190D01*
X140335238Y-72432380D02*
X140335238Y-71432380D01*
X140716190Y-71432380D01*
X140811428Y-71480000D01*
X140859047Y-71527619D01*
X140906666Y-71622857D01*
X140906666Y-71765714D01*
X140859047Y-71860952D01*
X140811428Y-71908571D01*
X140716190Y-71956190D01*
X140335238Y-71956190D01*
X141335238Y-71908571D02*
X141668571Y-71908571D01*
X141811428Y-72432380D02*
X141335238Y-72432380D01*
X141335238Y-71432380D01*
X141811428Y-71432380D01*
X142573333Y-71908571D02*
X142240000Y-71908571D01*
X142240000Y-72432380D02*
X142240000Y-71432380D01*
X142716190Y-71432380D01*
X143240000Y-71432380D02*
X143240000Y-71670476D01*
X143001904Y-71575238D02*
X143240000Y-71670476D01*
X143478095Y-71575238D01*
X143097142Y-71860952D02*
X143240000Y-71670476D01*
X143382857Y-71860952D01*
X144001904Y-71432380D02*
X144001904Y-71670476D01*
X143763809Y-71575238D02*
X144001904Y-71670476D01*
X144240000Y-71575238D01*
X143859047Y-71860952D02*
X144001904Y-71670476D01*
X144144761Y-71860952D01*
X162152380Y-97853333D02*
X161676190Y-98186666D01*
X162152380Y-98424761D02*
X161152380Y-98424761D01*
X161152380Y-98043809D01*
X161200000Y-97948571D01*
X161247619Y-97900952D01*
X161342857Y-97853333D01*
X161485714Y-97853333D01*
X161580952Y-97900952D01*
X161628571Y-97948571D01*
X161676190Y-98043809D01*
X161676190Y-98424761D01*
X161628571Y-97424761D02*
X161628571Y-97091428D01*
X162152380Y-96948571D02*
X162152380Y-97424761D01*
X161152380Y-97424761D01*
X161152380Y-96948571D01*
X161628571Y-96186666D02*
X161628571Y-96520000D01*
X162152380Y-96520000D02*
X161152380Y-96520000D01*
X161152380Y-96043809D01*
X161152380Y-95520000D02*
X161390476Y-95520000D01*
X161295238Y-95758095D02*
X161390476Y-95520000D01*
X161295238Y-95281904D01*
X161580952Y-95662857D02*
X161390476Y-95520000D01*
X161580952Y-95377142D01*
X161152380Y-94758095D02*
X161390476Y-94758095D01*
X161295238Y-94996190D02*
X161390476Y-94758095D01*
X161295238Y-94520000D01*
X161580952Y-94900952D02*
X161390476Y-94758095D01*
X161580952Y-94615238D01*
X184172857Y-66062380D02*
X183839523Y-65586190D01*
X183601428Y-66062380D02*
X183601428Y-65062380D01*
X183982380Y-65062380D01*
X184077619Y-65110000D01*
X184125238Y-65157619D01*
X184172857Y-65252857D01*
X184172857Y-65395714D01*
X184125238Y-65490952D01*
X184077619Y-65538571D01*
X183982380Y-65586190D01*
X183601428Y-65586190D01*
X184506190Y-65062380D02*
X185172857Y-66062380D01*
X185172857Y-65062380D02*
X184506190Y-66062380D01*
X189982380Y-65062380D02*
X190553809Y-65062380D01*
X190268095Y-66062380D02*
X190268095Y-65062380D01*
X190791904Y-65062380D02*
X191458571Y-66062380D01*
X191458571Y-65062380D02*
X190791904Y-66062380D01*
X197696666Y-65110000D02*
X197601428Y-65062380D01*
X197458571Y-65062380D01*
X197315714Y-65110000D01*
X197220476Y-65205238D01*
X197172857Y-65300476D01*
X197125238Y-65490952D01*
X197125238Y-65633809D01*
X197172857Y-65824285D01*
X197220476Y-65919523D01*
X197315714Y-66014761D01*
X197458571Y-66062380D01*
X197553809Y-66062380D01*
X197696666Y-66014761D01*
X197744285Y-65967142D01*
X197744285Y-65633809D01*
X197553809Y-65633809D01*
X198172857Y-66062380D02*
X198172857Y-65062380D01*
X198744285Y-66062380D01*
X198744285Y-65062380D01*
X199220476Y-66062380D02*
X199220476Y-65062380D01*
X199458571Y-65062380D01*
X199601428Y-65110000D01*
X199696666Y-65205238D01*
X199744285Y-65300476D01*
X199791904Y-65490952D01*
X199791904Y-65633809D01*
X199744285Y-65824285D01*
X199696666Y-65919523D01*
X199601428Y-66014761D01*
X199458571Y-66062380D01*
X199220476Y-66062380D01*
X177416666Y-107992380D02*
X177083333Y-107516190D01*
X176845238Y-107992380D02*
X176845238Y-106992380D01*
X177226190Y-106992380D01*
X177321428Y-107040000D01*
X177369047Y-107087619D01*
X177416666Y-107182857D01*
X177416666Y-107325714D01*
X177369047Y-107420952D01*
X177321428Y-107468571D01*
X177226190Y-107516190D01*
X176845238Y-107516190D01*
X177845238Y-107468571D02*
X178178571Y-107468571D01*
X178321428Y-107992380D02*
X177845238Y-107992380D01*
X177845238Y-106992380D01*
X178321428Y-106992380D01*
X179083333Y-107468571D02*
X178750000Y-107468571D01*
X178750000Y-107992380D02*
X178750000Y-106992380D01*
X179226190Y-106992380D01*
X179750000Y-106992380D02*
X179750000Y-107230476D01*
X179511904Y-107135238D02*
X179750000Y-107230476D01*
X179988095Y-107135238D01*
X179607142Y-107420952D02*
X179750000Y-107230476D01*
X179892857Y-107420952D01*
X180511904Y-106992380D02*
X180511904Y-107230476D01*
X180273809Y-107135238D02*
X180511904Y-107230476D01*
X180750000Y-107135238D01*
X180369047Y-107420952D02*
X180511904Y-107230476D01*
X180654761Y-107420952D01*
X179902380Y-69913333D02*
X179426190Y-70246666D01*
X179902380Y-70484761D02*
X178902380Y-70484761D01*
X178902380Y-70103809D01*
X178950000Y-70008571D01*
X178997619Y-69960952D01*
X179092857Y-69913333D01*
X179235714Y-69913333D01*
X179330952Y-69960952D01*
X179378571Y-70008571D01*
X179426190Y-70103809D01*
X179426190Y-70484761D01*
X179378571Y-69484761D02*
X179378571Y-69151428D01*
X179902380Y-69008571D02*
X179902380Y-69484761D01*
X178902380Y-69484761D01*
X178902380Y-69008571D01*
X179378571Y-68246666D02*
X179378571Y-68580000D01*
X179902380Y-68580000D02*
X178902380Y-68580000D01*
X178902380Y-68103809D01*
X178902380Y-67580000D02*
X179140476Y-67580000D01*
X179045238Y-67818095D02*
X179140476Y-67580000D01*
X179045238Y-67341904D01*
X179330952Y-67722857D02*
X179140476Y-67580000D01*
X179330952Y-67437142D01*
X178902380Y-66818095D02*
X179140476Y-66818095D01*
X179045238Y-67056190D02*
X179140476Y-66818095D01*
X179045238Y-66580000D01*
X179330952Y-66960952D02*
X179140476Y-66818095D01*
X179330952Y-66675238D01*
X186626666Y-77492380D02*
X186293333Y-77016190D01*
X186055238Y-77492380D02*
X186055238Y-76492380D01*
X186436190Y-76492380D01*
X186531428Y-76540000D01*
X186579047Y-76587619D01*
X186626666Y-76682857D01*
X186626666Y-76825714D01*
X186579047Y-76920952D01*
X186531428Y-76968571D01*
X186436190Y-77016190D01*
X186055238Y-77016190D01*
X187055238Y-76968571D02*
X187388571Y-76968571D01*
X187531428Y-77492380D02*
X187055238Y-77492380D01*
X187055238Y-76492380D01*
X187531428Y-76492380D01*
X188293333Y-76968571D02*
X187960000Y-76968571D01*
X187960000Y-77492380D02*
X187960000Y-76492380D01*
X188436190Y-76492380D01*
X188960000Y-76492380D02*
X188960000Y-76730476D01*
X188721904Y-76635238D02*
X188960000Y-76730476D01*
X189198095Y-76635238D01*
X188817142Y-76920952D02*
X188960000Y-76730476D01*
X189102857Y-76920952D01*
X189721904Y-76492380D02*
X189721904Y-76730476D01*
X189483809Y-76635238D02*
X189721904Y-76730476D01*
X189960000Y-76635238D01*
X189579047Y-76920952D02*
X189721904Y-76730476D01*
X189864761Y-76920952D01*
X140645414Y-90087380D02*
X140312081Y-89611190D01*
X140073986Y-90087380D02*
X140073986Y-89087380D01*
X140454938Y-89087380D01*
X140550176Y-89135000D01*
X140597795Y-89182619D01*
X140645414Y-89277857D01*
X140645414Y-89420714D01*
X140597795Y-89515952D01*
X140550176Y-89563571D01*
X140454938Y-89611190D01*
X140073986Y-89611190D01*
X141073986Y-89563571D02*
X141407319Y-89563571D01*
X141550176Y-90087380D02*
X141073986Y-90087380D01*
X141073986Y-89087380D01*
X141550176Y-89087380D01*
X142312081Y-89563571D02*
X141978748Y-89563571D01*
X141978748Y-90087380D02*
X141978748Y-89087380D01*
X142454938Y-89087380D01*
X142978748Y-89087380D02*
X142978748Y-89325476D01*
X142740652Y-89230238D02*
X142978748Y-89325476D01*
X143216843Y-89230238D01*
X142835890Y-89515952D02*
X142978748Y-89325476D01*
X143121605Y-89515952D01*
X143740652Y-89087380D02*
X143740652Y-89325476D01*
X143502557Y-89230238D02*
X143740652Y-89325476D01*
X143978748Y-89230238D01*
X143597795Y-89515952D02*
X143740652Y-89325476D01*
X143883509Y-89515952D01*
X147772380Y-118253333D02*
X147296190Y-118586666D01*
X147772380Y-118824761D02*
X146772380Y-118824761D01*
X146772380Y-118443809D01*
X146820000Y-118348571D01*
X146867619Y-118300952D01*
X146962857Y-118253333D01*
X147105714Y-118253333D01*
X147200952Y-118300952D01*
X147248571Y-118348571D01*
X147296190Y-118443809D01*
X147296190Y-118824761D01*
X147248571Y-117824761D02*
X147248571Y-117491428D01*
X147772380Y-117348571D02*
X147772380Y-117824761D01*
X146772380Y-117824761D01*
X146772380Y-117348571D01*
X147248571Y-116586666D02*
X147248571Y-116920000D01*
X147772380Y-116920000D02*
X146772380Y-116920000D01*
X146772380Y-116443809D01*
X146772380Y-115920000D02*
X147010476Y-115920000D01*
X146915238Y-116158095D02*
X147010476Y-115920000D01*
X146915238Y-115681904D01*
X147200952Y-116062857D02*
X147010476Y-115920000D01*
X147200952Y-115777142D01*
X146772380Y-115158095D02*
X147010476Y-115158095D01*
X146915238Y-115396190D02*
X147010476Y-115158095D01*
X146915238Y-114920000D01*
X147200952Y-115300952D02*
X147010476Y-115158095D01*
X147200952Y-115015238D01*
X208210000Y-115654761D02*
X208162380Y-115750000D01*
X208162380Y-115892857D01*
X208210000Y-116035714D01*
X208305238Y-116130952D01*
X208400476Y-116178571D01*
X208590952Y-116226190D01*
X208733809Y-116226190D01*
X208924285Y-116178571D01*
X209019523Y-116130952D01*
X209114761Y-116035714D01*
X209162380Y-115892857D01*
X209162380Y-115797619D01*
X209114761Y-115654761D01*
X209067142Y-115607142D01*
X208733809Y-115607142D01*
X208733809Y-115797619D01*
X209162380Y-115178571D02*
X208162380Y-115178571D01*
X209162380Y-114607142D01*
X208162380Y-114607142D01*
X209162380Y-114130952D02*
X208162380Y-114130952D01*
X208162380Y-113892857D01*
X208210000Y-113750000D01*
X208305238Y-113654761D01*
X208400476Y-113607142D01*
X208590952Y-113559523D01*
X208733809Y-113559523D01*
X208924285Y-113607142D01*
X209019523Y-113654761D01*
X209114761Y-113750000D01*
X209162380Y-113892857D01*
X209162380Y-114130952D01*
X208162380Y-109464285D02*
X208162380Y-108892857D01*
X209162380Y-109178571D02*
X208162380Y-109178571D01*
X208162380Y-108654761D02*
X209162380Y-107988095D01*
X208162380Y-107988095D02*
X209162380Y-108654761D01*
X209162380Y-103226190D02*
X208686190Y-103559523D01*
X209162380Y-103797619D02*
X208162380Y-103797619D01*
X208162380Y-103416666D01*
X208210000Y-103321428D01*
X208257619Y-103273809D01*
X208352857Y-103226190D01*
X208495714Y-103226190D01*
X208590952Y-103273809D01*
X208638571Y-103321428D01*
X208686190Y-103416666D01*
X208686190Y-103797619D01*
X208162380Y-102892857D02*
X209162380Y-102226190D01*
X208162380Y-102226190D02*
X209162380Y-102892857D01*
X140906666Y-77512380D02*
X140573333Y-77036190D01*
X140335238Y-77512380D02*
X140335238Y-76512380D01*
X140716190Y-76512380D01*
X140811428Y-76560000D01*
X140859047Y-76607619D01*
X140906666Y-76702857D01*
X140906666Y-76845714D01*
X140859047Y-76940952D01*
X140811428Y-76988571D01*
X140716190Y-77036190D01*
X140335238Y-77036190D01*
X141335238Y-76988571D02*
X141668571Y-76988571D01*
X141811428Y-77512380D02*
X141335238Y-77512380D01*
X141335238Y-76512380D01*
X141811428Y-76512380D01*
X142573333Y-76988571D02*
X142240000Y-76988571D01*
X142240000Y-77512380D02*
X142240000Y-76512380D01*
X142716190Y-76512380D01*
X143240000Y-76512380D02*
X143240000Y-76750476D01*
X143001904Y-76655238D02*
X143240000Y-76750476D01*
X143478095Y-76655238D01*
X143097142Y-76940952D02*
X143240000Y-76750476D01*
X143382857Y-76940952D01*
X144001904Y-76512380D02*
X144001904Y-76750476D01*
X143763809Y-76655238D02*
X144001904Y-76750476D01*
X144240000Y-76655238D01*
X143859047Y-76940952D02*
X144001904Y-76750476D01*
X144144761Y-76940952D01*
X204406666Y-86670380D02*
X204073333Y-86194190D01*
X203835238Y-86670380D02*
X203835238Y-85670380D01*
X204216190Y-85670380D01*
X204311428Y-85718000D01*
X204359047Y-85765619D01*
X204406666Y-85860857D01*
X204406666Y-86003714D01*
X204359047Y-86098952D01*
X204311428Y-86146571D01*
X204216190Y-86194190D01*
X203835238Y-86194190D01*
X204835238Y-86146571D02*
X205168571Y-86146571D01*
X205311428Y-86670380D02*
X204835238Y-86670380D01*
X204835238Y-85670380D01*
X205311428Y-85670380D01*
X206073333Y-86146571D02*
X205740000Y-86146571D01*
X205740000Y-86670380D02*
X205740000Y-85670380D01*
X206216190Y-85670380D01*
X206740000Y-85670380D02*
X206740000Y-85908476D01*
X206501904Y-85813238D02*
X206740000Y-85908476D01*
X206978095Y-85813238D01*
X206597142Y-86098952D02*
X206740000Y-85908476D01*
X206882857Y-86098952D01*
X207501904Y-85670380D02*
X207501904Y-85908476D01*
X207263809Y-85813238D02*
X207501904Y-85908476D01*
X207740000Y-85813238D01*
X207359047Y-86098952D02*
X207501904Y-85908476D01*
X207644761Y-86098952D01*
X186732380Y-96263333D02*
X186256190Y-96596666D01*
X186732380Y-96834761D02*
X185732380Y-96834761D01*
X185732380Y-96453809D01*
X185780000Y-96358571D01*
X185827619Y-96310952D01*
X185922857Y-96263333D01*
X186065714Y-96263333D01*
X186160952Y-96310952D01*
X186208571Y-96358571D01*
X186256190Y-96453809D01*
X186256190Y-96834761D01*
X186208571Y-95834761D02*
X186208571Y-95501428D01*
X186732380Y-95358571D02*
X186732380Y-95834761D01*
X185732380Y-95834761D01*
X185732380Y-95358571D01*
X186208571Y-94596666D02*
X186208571Y-94930000D01*
X186732380Y-94930000D02*
X185732380Y-94930000D01*
X185732380Y-94453809D01*
X185732380Y-93930000D02*
X185970476Y-93930000D01*
X185875238Y-94168095D02*
X185970476Y-93930000D01*
X185875238Y-93691904D01*
X186160952Y-94072857D02*
X185970476Y-93930000D01*
X186160952Y-93787142D01*
X185732380Y-93168095D02*
X185970476Y-93168095D01*
X185875238Y-93406190D02*
X185970476Y-93168095D01*
X185875238Y-92930000D01*
X186160952Y-93310952D02*
X185970476Y-93168095D01*
X186160952Y-93025238D01*
X140010380Y-102933333D02*
X139534190Y-103266666D01*
X140010380Y-103504761D02*
X139010380Y-103504761D01*
X139010380Y-103123809D01*
X139058000Y-103028571D01*
X139105619Y-102980952D01*
X139200857Y-102933333D01*
X139343714Y-102933333D01*
X139438952Y-102980952D01*
X139486571Y-103028571D01*
X139534190Y-103123809D01*
X139534190Y-103504761D01*
X139486571Y-102504761D02*
X139486571Y-102171428D01*
X140010380Y-102028571D02*
X140010380Y-102504761D01*
X139010380Y-102504761D01*
X139010380Y-102028571D01*
X139486571Y-101266666D02*
X139486571Y-101600000D01*
X140010380Y-101600000D02*
X139010380Y-101600000D01*
X139010380Y-101123809D01*
X139010380Y-100600000D02*
X139248476Y-100600000D01*
X139153238Y-100838095D02*
X139248476Y-100600000D01*
X139153238Y-100361904D01*
X139438952Y-100742857D02*
X139248476Y-100600000D01*
X139438952Y-100457142D01*
X139010380Y-99838095D02*
X139248476Y-99838095D01*
X139153238Y-100076190D02*
X139248476Y-99838095D01*
X139153238Y-99600000D01*
X139438952Y-99980952D02*
X139248476Y-99838095D01*
X139438952Y-99695238D01*
X187522380Y-69913333D02*
X187046190Y-70246666D01*
X187522380Y-70484761D02*
X186522380Y-70484761D01*
X186522380Y-70103809D01*
X186570000Y-70008571D01*
X186617619Y-69960952D01*
X186712857Y-69913333D01*
X186855714Y-69913333D01*
X186950952Y-69960952D01*
X186998571Y-70008571D01*
X187046190Y-70103809D01*
X187046190Y-70484761D01*
X186998571Y-69484761D02*
X186998571Y-69151428D01*
X187522380Y-69008571D02*
X187522380Y-69484761D01*
X186522380Y-69484761D01*
X186522380Y-69008571D01*
X186998571Y-68246666D02*
X186998571Y-68580000D01*
X187522380Y-68580000D02*
X186522380Y-68580000D01*
X186522380Y-68103809D01*
X186522380Y-67580000D02*
X186760476Y-67580000D01*
X186665238Y-67818095D02*
X186760476Y-67580000D01*
X186665238Y-67341904D01*
X186950952Y-67722857D02*
X186760476Y-67580000D01*
X186950952Y-67437142D01*
X186522380Y-66818095D02*
X186760476Y-66818095D01*
X186665238Y-67056190D02*
X186760476Y-66818095D01*
X186665238Y-66580000D01*
X186950952Y-66960952D02*
X186760476Y-66818095D01*
X186950952Y-66675238D01*
X177416666Y-110532380D02*
X177083333Y-110056190D01*
X176845238Y-110532380D02*
X176845238Y-109532380D01*
X177226190Y-109532380D01*
X177321428Y-109580000D01*
X177369047Y-109627619D01*
X177416666Y-109722857D01*
X177416666Y-109865714D01*
X177369047Y-109960952D01*
X177321428Y-110008571D01*
X177226190Y-110056190D01*
X176845238Y-110056190D01*
X177845238Y-110008571D02*
X178178571Y-110008571D01*
X178321428Y-110532380D02*
X177845238Y-110532380D01*
X177845238Y-109532380D01*
X178321428Y-109532380D01*
X179083333Y-110008571D02*
X178750000Y-110008571D01*
X178750000Y-110532380D02*
X178750000Y-109532380D01*
X179226190Y-109532380D01*
X179750000Y-109532380D02*
X179750000Y-109770476D01*
X179511904Y-109675238D02*
X179750000Y-109770476D01*
X179988095Y-109675238D01*
X179607142Y-109960952D02*
X179750000Y-109770476D01*
X179892857Y-109960952D01*
X180511904Y-109532380D02*
X180511904Y-109770476D01*
X180273809Y-109675238D02*
X180511904Y-109770476D01*
X180750000Y-109675238D01*
X180369047Y-109960952D02*
X180511904Y-109770476D01*
X180654761Y-109960952D01*
X194246666Y-127310380D02*
X193913333Y-126834190D01*
X193675238Y-127310380D02*
X193675238Y-126310380D01*
X194056190Y-126310380D01*
X194151428Y-126358000D01*
X194199047Y-126405619D01*
X194246666Y-126500857D01*
X194246666Y-126643714D01*
X194199047Y-126738952D01*
X194151428Y-126786571D01*
X194056190Y-126834190D01*
X193675238Y-126834190D01*
X194675238Y-126786571D02*
X195008571Y-126786571D01*
X195151428Y-127310380D02*
X194675238Y-127310380D01*
X194675238Y-126310380D01*
X195151428Y-126310380D01*
X195913333Y-126786571D02*
X195580000Y-126786571D01*
X195580000Y-127310380D02*
X195580000Y-126310380D01*
X196056190Y-126310380D01*
X196580000Y-126310380D02*
X196580000Y-126548476D01*
X196341904Y-126453238D02*
X196580000Y-126548476D01*
X196818095Y-126453238D01*
X196437142Y-126738952D02*
X196580000Y-126548476D01*
X196722857Y-126738952D01*
X197341904Y-126310380D02*
X197341904Y-126548476D01*
X197103809Y-126453238D02*
X197341904Y-126548476D01*
X197580000Y-126453238D01*
X197199047Y-126738952D02*
X197341904Y-126548476D01*
X197484761Y-126738952D01*
X135826666Y-87022380D02*
X135493333Y-86546190D01*
X135255238Y-87022380D02*
X135255238Y-86022380D01*
X135636190Y-86022380D01*
X135731428Y-86070000D01*
X135779047Y-86117619D01*
X135826666Y-86212857D01*
X135826666Y-86355714D01*
X135779047Y-86450952D01*
X135731428Y-86498571D01*
X135636190Y-86546190D01*
X135255238Y-86546190D01*
X136255238Y-86498571D02*
X136588571Y-86498571D01*
X136731428Y-87022380D02*
X136255238Y-87022380D01*
X136255238Y-86022380D01*
X136731428Y-86022380D01*
X137493333Y-86498571D02*
X137160000Y-86498571D01*
X137160000Y-87022380D02*
X137160000Y-86022380D01*
X137636190Y-86022380D01*
X138160000Y-86022380D02*
X138160000Y-86260476D01*
X137921904Y-86165238D02*
X138160000Y-86260476D01*
X138398095Y-86165238D01*
X138017142Y-86450952D02*
X138160000Y-86260476D01*
X138302857Y-86450952D01*
X138921904Y-86022380D02*
X138921904Y-86260476D01*
X138683809Y-86165238D02*
X138921904Y-86260476D01*
X139160000Y-86165238D01*
X138779047Y-86450952D02*
X138921904Y-86260476D01*
X139064761Y-86450952D01*
X184192380Y-96263333D02*
X183716190Y-96596666D01*
X184192380Y-96834761D02*
X183192380Y-96834761D01*
X183192380Y-96453809D01*
X183240000Y-96358571D01*
X183287619Y-96310952D01*
X183382857Y-96263333D01*
X183525714Y-96263333D01*
X183620952Y-96310952D01*
X183668571Y-96358571D01*
X183716190Y-96453809D01*
X183716190Y-96834761D01*
X183668571Y-95834761D02*
X183668571Y-95501428D01*
X184192380Y-95358571D02*
X184192380Y-95834761D01*
X183192380Y-95834761D01*
X183192380Y-95358571D01*
X183668571Y-94596666D02*
X183668571Y-94930000D01*
X184192380Y-94930000D02*
X183192380Y-94930000D01*
X183192380Y-94453809D01*
X183192380Y-93930000D02*
X183430476Y-93930000D01*
X183335238Y-94168095D02*
X183430476Y-93930000D01*
X183335238Y-93691904D01*
X183620952Y-94072857D02*
X183430476Y-93930000D01*
X183620952Y-93787142D01*
X183192380Y-93168095D02*
X183430476Y-93168095D01*
X183335238Y-93406190D02*
X183430476Y-93168095D01*
X183335238Y-92930000D01*
X183620952Y-93310952D02*
X183430476Y-93168095D01*
X183620952Y-93025238D01*
G36*
X147022343Y-131107656D02*
G01*
X147111467Y-130964345D01*
X147201018Y-130852314D01*
X147320276Y-130740868D01*
X147366043Y-130706376D01*
X147531494Y-130591718D01*
X148963637Y-130591718D01*
X149338891Y-130591845D01*
X149643393Y-130592545D01*
X149885764Y-130594295D01*
X150074629Y-130597574D01*
X150218610Y-130602860D01*
X150326328Y-130610632D01*
X150406408Y-130621366D01*
X150467472Y-130635543D01*
X150518142Y-130653639D01*
X150567040Y-130676132D01*
X150577374Y-130681204D01*
X150719903Y-130763633D01*
X150869516Y-130868162D01*
X150925702Y-130913409D01*
X151092436Y-131056128D01*
X151174781Y-130951443D01*
X151252887Y-130878711D01*
X151375187Y-130792520D01*
X151501141Y-130719238D01*
X151745156Y-130591718D01*
X152546472Y-130578898D01*
X152846782Y-130575522D01*
X153081297Y-130576637D01*
X153263502Y-130582897D01*
X153406885Y-130594957D01*
X153524932Y-130613470D01*
X153596830Y-130629880D01*
X153947666Y-130757193D01*
X154274669Y-130947938D01*
X154567018Y-131191348D01*
X154813891Y-131476657D01*
X155004466Y-131793098D01*
X155127922Y-132129906D01*
X155135286Y-132160478D01*
X155144975Y-132243530D01*
X155153589Y-132400738D01*
X155161026Y-132626888D01*
X155167182Y-132916765D01*
X155171956Y-133265157D01*
X155175245Y-133666850D01*
X155176947Y-134116630D01*
X155177154Y-134294382D01*
X155178125Y-136250795D01*
X155078050Y-136350869D01*
X155039335Y-136387667D01*
X154999722Y-136413880D01*
X154946238Y-136431006D01*
X154865911Y-136440544D01*
X154745769Y-136443994D01*
X154572838Y-136442852D01*
X154334147Y-136438620D01*
X154320708Y-136438362D01*
X154075796Y-136432934D01*
X153898075Y-136426446D01*
X153775364Y-136417370D01*
X153695481Y-136404174D01*
X153646243Y-136385329D01*
X153615470Y-136359305D01*
X153607189Y-136348742D01*
X153593756Y-136318915D01*
X153582560Y-136265151D01*
X153573412Y-136180986D01*
X153566125Y-136059958D01*
X153560513Y-135895603D01*
X153556386Y-135681458D01*
X153553558Y-135411061D01*
X153551841Y-135077947D01*
X153551048Y-134675654D01*
X153550937Y-134409458D01*
X153550847Y-133976542D01*
X153550377Y-133615760D01*
X153549223Y-133319870D01*
X153547083Y-133081631D01*
X153543654Y-132893802D01*
X153538634Y-132749141D01*
X153531721Y-132640408D01*
X153522611Y-132560360D01*
X153511002Y-132501758D01*
X153496593Y-132457358D01*
X153479079Y-132419920D01*
X153466883Y-132397660D01*
X153381681Y-132273580D01*
X153278252Y-132185046D01*
X153142770Y-132126868D01*
X152961407Y-132093852D01*
X152720335Y-132080808D01*
X152620828Y-132080000D01*
X152370317Y-132084988D01*
X152186188Y-132102438D01*
X152055929Y-132136076D01*
X151967029Y-132189629D01*
X151906976Y-132266825D01*
X151891789Y-132297172D01*
X151879932Y-132347631D01*
X151869978Y-132445624D01*
X151861823Y-132595631D01*
X151855363Y-132802135D01*
X151850492Y-133069616D01*
X151847108Y-133402557D01*
X151845105Y-133805438D01*
X151844381Y-134282741D01*
X151844375Y-134336469D01*
X151844046Y-134790681D01*
X151842943Y-135171857D01*
X151840889Y-135486338D01*
X151837705Y-135740459D01*
X151833216Y-135940560D01*
X151827243Y-136092978D01*
X151819610Y-136204052D01*
X151810139Y-136280120D01*
X151798654Y-136327518D01*
X151788126Y-136348742D01*
X151759443Y-136378636D01*
X151715422Y-136400241D01*
X151643278Y-136415299D01*
X151530227Y-136425550D01*
X151363484Y-136432735D01*
X151130265Y-136438594D01*
X151127866Y-136438646D01*
X150909954Y-136441701D01*
X150714395Y-136441499D01*
X150557672Y-136438277D01*
X150456267Y-136432273D01*
X150432827Y-136428664D01*
X150384871Y-136416889D01*
X150344602Y-136403324D01*
X150311344Y-136381435D01*
X150284423Y-136344690D01*
X150263162Y-136286556D01*
X150246888Y-136200499D01*
X150234925Y-136079987D01*
X150226599Y-135918487D01*
X150221233Y-135709465D01*
X150218154Y-135446390D01*
X150216685Y-135122727D01*
X150216153Y-134731945D01*
X150215925Y-134329430D01*
X150215699Y-133876859D01*
X150215184Y-133496833D01*
X150213669Y-133182522D01*
X150210444Y-132927098D01*
X150204800Y-132723732D01*
X150196025Y-132565594D01*
X150183410Y-132445855D01*
X150166246Y-132357687D01*
X150143820Y-132294261D01*
X150115425Y-132248746D01*
X150080349Y-132214315D01*
X150037882Y-132184138D01*
X149989604Y-132152899D01*
X149936032Y-132124329D01*
X149866996Y-132104250D01*
X149768568Y-132091237D01*
X149626819Y-132083867D01*
X149427818Y-132080717D01*
X149278855Y-132080261D01*
X149043783Y-132081240D01*
X148876402Y-132085190D01*
X148765051Y-132093279D01*
X148698066Y-132106673D01*
X148663784Y-132126538D01*
X148653777Y-132142777D01*
X148649101Y-132193674D01*
X148644724Y-132316214D01*
X148640735Y-132502663D01*
X148637224Y-132745290D01*
X148634278Y-133036363D01*
X148631987Y-133368148D01*
X148630440Y-133732914D01*
X148629726Y-134122928D01*
X148629687Y-134238629D01*
X148629380Y-134704645D01*
X148628349Y-135097472D01*
X148626430Y-135423297D01*
X148623457Y-135688304D01*
X148619265Y-135898678D01*
X148613689Y-136060604D01*
X148606564Y-136180267D01*
X148597726Y-136263853D01*
X148587008Y-136317545D01*
X148574247Y-136347530D01*
X148573389Y-136348742D01*
X148557763Y-136369365D01*
X148538845Y-136385979D01*
X148508716Y-136398928D01*
X148459458Y-136408554D01*
X148383155Y-136415201D01*
X148271886Y-136419213D01*
X148117736Y-136420932D01*
X147912785Y-136420702D01*
X147649115Y-136418867D01*
X147318809Y-136415769D01*
X147081875Y-136413412D01*
X147012571Y-136413932D01*
X146877849Y-136415960D01*
X146691648Y-136419249D01*
X146467906Y-136423552D01*
X146220560Y-136428620D01*
X146188906Y-136429290D01*
X145893760Y-136434582D01*
X145666732Y-136434857D01*
X145496614Y-136427937D01*
X145372200Y-136411644D01*
X145282283Y-136383801D01*
X145215656Y-136342227D01*
X145161111Y-136284747D01*
X145115089Y-136220585D01*
X145080693Y-136151747D01*
X145024788Y-136018497D01*
X144951472Y-135831553D01*
X144864839Y-135601636D01*
X144768985Y-135339465D01*
X144668005Y-135055760D01*
X144645275Y-134990851D01*
X144531273Y-134666194D01*
X144438709Y-134407952D01*
X144363836Y-134207264D01*
X144302907Y-134055271D01*
X144252176Y-133943112D01*
X144207896Y-133861928D01*
X144166320Y-133802858D01*
X144123704Y-133757044D01*
X144123443Y-133756796D01*
X143987415Y-133627812D01*
X142636875Y-133627812D01*
X142636875Y-134972327D01*
X142636550Y-135338012D01*
X142635325Y-135632376D01*
X142632821Y-135863475D01*
X142628661Y-136039361D01*
X142622467Y-136168089D01*
X142613861Y-136257712D01*
X142602465Y-136316284D01*
X142587901Y-136351858D01*
X142571243Y-136371312D01*
X142529057Y-136391061D01*
X142450476Y-136405744D01*
X142326217Y-136415951D01*
X142146993Y-136422273D01*
X141903522Y-136425300D01*
X141714456Y-136425781D01*
X141445193Y-136425532D01*
X141244042Y-136423974D01*
X141099741Y-136419890D01*
X141001027Y-136412063D01*
X140936638Y-136399276D01*
X140895312Y-136380312D01*
X140865785Y-136353953D01*
X140847430Y-136332087D01*
X140828687Y-136305461D01*
X140813307Y-136271269D01*
X140800959Y-136221963D01*
X140791312Y-136149992D01*
X140784035Y-136047808D01*
X140778796Y-135907862D01*
X140775264Y-135722604D01*
X140773107Y-135484484D01*
X140771996Y-135185954D01*
X140771597Y-134819464D01*
X140771562Y-134603048D01*
X140772684Y-134165968D01*
X140775957Y-133774463D01*
X140781242Y-133434574D01*
X140788400Y-133152342D01*
X140797291Y-132933809D01*
X140807776Y-132785017D01*
X140814686Y-132732210D01*
X140888623Y-132469600D01*
X141003417Y-132242078D01*
X141149181Y-132067485D01*
X141209675Y-132019394D01*
X141290911Y-131965746D01*
X141370710Y-131921715D01*
X141457626Y-131886355D01*
X141560211Y-131858722D01*
X141687022Y-131837871D01*
X141846610Y-131822857D01*
X142047531Y-131812735D01*
X142298339Y-131806560D01*
X142607587Y-131803386D01*
X142983829Y-131802270D01*
X143175918Y-131802187D01*
X144615159Y-131802187D01*
X144732899Y-131703116D01*
X144862077Y-131544456D01*
X144952979Y-131320419D01*
X145003535Y-131036267D01*
X145005861Y-131010042D01*
X145004130Y-130723659D01*
X144946411Y-130490644D01*
X144831713Y-130307127D01*
X144823046Y-130297658D01*
X144708466Y-130175000D01*
X141171850Y-130175000D01*
X141008951Y-130700859D01*
X140936420Y-130934054D01*
X140859804Y-131178810D01*
X140788292Y-131405853D01*
X140731718Y-131583906D01*
X140693374Y-131704981D01*
X140635120Y-131890634D01*
X140560464Y-132129599D01*
X140472916Y-132410613D01*
X140375986Y-132722412D01*
X140273183Y-133053731D01*
X140175277Y-133369843D01*
X140019830Y-133872344D01*
X139886011Y-134304699D01*
X139771830Y-134672541D01*
X139675297Y-134981503D01*
X139594421Y-135237219D01*
X139527212Y-135445321D01*
X139471680Y-135611443D01*
X139425833Y-135741218D01*
X139387682Y-135840280D01*
X139355236Y-135914260D01*
X139326504Y-135968794D01*
X139299496Y-136009514D01*
X139272221Y-136042053D01*
X139242690Y-136072044D01*
X139208911Y-136105121D01*
X139208701Y-136105330D01*
X139090820Y-136206942D01*
X138959576Y-136282389D01*
X138797904Y-136337733D01*
X138588739Y-136379035D01*
X138356228Y-136408119D01*
X138112993Y-136429730D01*
X137901257Y-136437599D01*
X137686722Y-136431663D01*
X137435090Y-136411858D01*
X137378281Y-136406325D01*
X137126167Y-136374310D01*
X136934353Y-136330884D01*
X136783870Y-136268787D01*
X136655750Y-136180755D01*
X136564173Y-136094631D01*
X136509095Y-136035980D01*
X136462830Y-135978883D01*
X136421152Y-135913091D01*
X136379834Y-135828357D01*
X136334651Y-135714431D01*
X136281376Y-135561066D01*
X136215783Y-135358012D01*
X136133646Y-135095022D01*
X136078810Y-134917626D01*
X135824609Y-134093918D01*
X135592975Y-133342914D01*
X135382962Y-132661506D01*
X135193626Y-132046586D01*
X135024022Y-131495044D01*
X134873205Y-131003772D01*
X134740230Y-130569663D01*
X134624152Y-130189606D01*
X134524026Y-129860494D01*
X134438908Y-129579217D01*
X134367852Y-129342669D01*
X134309914Y-129147739D01*
X134264148Y-128991320D01*
X134229610Y-128870303D01*
X134205355Y-128781578D01*
X134190438Y-128722039D01*
X134183913Y-128688576D01*
X134183437Y-128682272D01*
X134184575Y-128666537D01*
X134362239Y-128666537D01*
X134362540Y-128682671D01*
X134370545Y-128722515D01*
X134387149Y-128789023D01*
X134413247Y-128885148D01*
X134449734Y-129013845D01*
X134497504Y-129178066D01*
X134557454Y-129380765D01*
X134630477Y-129624896D01*
X134717468Y-129913413D01*
X134819323Y-130249269D01*
X134936937Y-130635418D01*
X135071204Y-131074814D01*
X135223019Y-131570410D01*
X135393278Y-132125159D01*
X135582875Y-132742016D01*
X135792705Y-133423933D01*
X136023663Y-134173866D01*
X136276644Y-134994766D01*
X136451142Y-135560761D01*
X136554617Y-135811523D01*
X136694580Y-135996596D01*
X136880437Y-136124904D01*
X137121595Y-136205371D01*
X137133266Y-136207877D01*
X137227866Y-136218877D01*
X137384751Y-136227214D01*
X137586861Y-136232399D01*
X137817137Y-136233945D01*
X137993437Y-136232491D01*
X138265067Y-136226922D01*
X138470348Y-136218560D01*
X138622290Y-136206199D01*
X138733903Y-136188631D01*
X138818197Y-136164652D01*
X138846177Y-136153432D01*
X139046845Y-136037480D01*
X139182374Y-135888815D01*
X139230087Y-135796782D01*
X139250204Y-135739220D01*
X139291890Y-135612093D01*
X139353173Y-135421639D01*
X139432080Y-135174096D01*
X139526640Y-134875703D01*
X139634878Y-134532699D01*
X139754823Y-134151320D01*
X139884502Y-133737807D01*
X140021942Y-133298397D01*
X140160629Y-132853906D01*
X141038764Y-130036093D01*
X142890334Y-130025778D01*
X143336235Y-130023144D01*
X143709778Y-130021287D01*
X144017978Y-130021180D01*
X144267853Y-130023797D01*
X144466419Y-130030110D01*
X144620692Y-130041093D01*
X144737689Y-130057719D01*
X144824425Y-130080961D01*
X144887919Y-130111792D01*
X144935185Y-130151185D01*
X144973241Y-130200114D01*
X145009102Y-130259552D01*
X145046464Y-130324822D01*
X145124519Y-130517566D01*
X145165032Y-130749817D01*
X145169893Y-131001497D01*
X145140993Y-131252524D01*
X145080222Y-131482817D01*
X144989470Y-131672298D01*
X144910554Y-131768565D01*
X144856176Y-131818101D01*
X144804224Y-131858308D01*
X144746154Y-131890158D01*
X144673421Y-131914626D01*
X144577484Y-131932684D01*
X144449797Y-131945306D01*
X144281819Y-131953466D01*
X144065004Y-131958137D01*
X143790809Y-131960292D01*
X143450692Y-131960905D01*
X143222156Y-131960937D01*
X142808924Y-131961572D01*
X142466721Y-131964215D01*
X142187206Y-131969974D01*
X141962039Y-131979955D01*
X141782879Y-131995267D01*
X141641384Y-132017016D01*
X141529215Y-132046309D01*
X141438029Y-132084255D01*
X141359488Y-132131960D01*
X141285249Y-132190532D01*
X141248564Y-132222948D01*
X141186108Y-132281035D01*
X141133762Y-132337612D01*
X141090632Y-132399935D01*
X141055827Y-132475260D01*
X141028455Y-132570842D01*
X141007622Y-132693937D01*
X140992437Y-132851801D01*
X140982008Y-133051690D01*
X140975442Y-133300858D01*
X140971847Y-133606562D01*
X140970331Y-133976058D01*
X140970002Y-134416600D01*
X140970000Y-134488163D01*
X140970000Y-136247187D01*
X142478125Y-136247187D01*
X142478125Y-134885906D01*
X142478929Y-134490191D01*
X142481464Y-134168369D01*
X142485917Y-133914969D01*
X142492470Y-133724523D01*
X142501310Y-133591564D01*
X142512620Y-133510622D01*
X142525750Y-133476999D01*
X142577979Y-133457133D01*
X142692473Y-133442851D01*
X142874244Y-133433821D01*
X143128306Y-133429714D01*
X143247438Y-133429375D01*
X143553947Y-133433152D01*
X143792622Y-133446484D01*
X143974733Y-133472372D01*
X144111550Y-133513816D01*
X144214344Y-133573818D01*
X144294385Y-133655377D01*
X144338659Y-133719925D01*
X144371366Y-133788760D01*
X144426086Y-133922003D01*
X144498799Y-134109075D01*
X144585483Y-134339399D01*
X144682116Y-134602398D01*
X144784679Y-134887496D01*
X144814761Y-134972245D01*
X144917448Y-135258670D01*
X145014823Y-135523217D01*
X145103010Y-135755894D01*
X145178133Y-135946712D01*
X145236315Y-136085681D01*
X145273681Y-136162812D01*
X145280600Y-136172792D01*
X145309623Y-136198356D01*
X145351298Y-136217325D01*
X145416768Y-136230669D01*
X145517177Y-136239358D01*
X145663668Y-136244360D01*
X145867385Y-136246647D01*
X146135526Y-136247187D01*
X146427372Y-136245616D01*
X146645976Y-136240370D01*
X146797418Y-136230646D01*
X146887777Y-136215642D01*
X146923135Y-136194558D01*
X146909572Y-136166591D01*
X146884245Y-136148467D01*
X146862216Y-136105793D01*
X146819594Y-135997450D01*
X146759911Y-135833390D01*
X146686697Y-135623565D01*
X146603486Y-135377927D01*
X146513808Y-135106428D01*
X146506655Y-135084485D01*
X146387204Y-134718860D01*
X146288212Y-134419544D01*
X146206038Y-134177218D01*
X146137045Y-133982562D01*
X146077591Y-133826256D01*
X146024037Y-133698980D01*
X145972745Y-133591416D01*
X145920074Y-133494242D01*
X145862385Y-133398141D01*
X145824949Y-133338840D01*
X145744997Y-133211682D01*
X145684862Y-133112363D01*
X145654772Y-133057901D01*
X145653125Y-133053012D01*
X145683122Y-133023548D01*
X145760739Y-132964562D01*
X145841640Y-132907773D01*
X146139384Y-132664281D01*
X146366606Y-132386556D01*
X146526184Y-132070574D01*
X146590688Y-131860833D01*
X146624622Y-131665034D01*
X146648025Y-131413394D01*
X146660867Y-131127097D01*
X146663119Y-130827329D01*
X146654754Y-130535275D01*
X146635743Y-130272120D01*
X146606056Y-130059051D01*
X146593204Y-130000495D01*
X146467607Y-129637837D01*
X146286972Y-129321646D01*
X146057285Y-129058041D01*
X145784529Y-128853141D01*
X145474686Y-128713065D01*
X145287582Y-128665290D01*
X145214397Y-128658730D01*
X145072506Y-128652771D01*
X144869932Y-128647424D01*
X144614704Y-128642701D01*
X144314847Y-128638614D01*
X143978386Y-128635174D01*
X143613349Y-128632393D01*
X143227762Y-128630282D01*
X142829650Y-128628852D01*
X142427040Y-128628116D01*
X142027958Y-128628084D01*
X141640430Y-128628769D01*
X141272482Y-128630182D01*
X140932141Y-128632334D01*
X140627433Y-128635238D01*
X140366384Y-128638903D01*
X140157019Y-128643343D01*
X140007366Y-128648568D01*
X139925450Y-128654591D01*
X139912832Y-128657560D01*
X139894412Y-128699187D01*
X139854675Y-128811001D01*
X139795454Y-128987265D01*
X139718579Y-129222244D01*
X139625883Y-129510200D01*
X139519196Y-129845395D01*
X139400350Y-130222094D01*
X139271177Y-130634558D01*
X139133508Y-131077051D01*
X138989174Y-131543836D01*
X138927958Y-131742656D01*
X138781224Y-132218457D01*
X138640285Y-132672818D01*
X138506989Y-133099945D01*
X138383181Y-133494046D01*
X138270706Y-133849327D01*
X138171410Y-134159997D01*
X138087138Y-134420263D01*
X138019738Y-134624332D01*
X137971053Y-134766411D01*
X137942931Y-134840708D01*
X137937810Y-134850194D01*
X137887359Y-134881904D01*
X137845048Y-134850194D01*
X137827057Y-134805014D01*
X137787738Y-134689706D01*
X137728920Y-134510064D01*
X137652429Y-134271883D01*
X137560095Y-133980957D01*
X137453745Y-133643081D01*
X137335207Y-133264049D01*
X137206309Y-132849655D01*
X137068879Y-132405695D01*
X136924744Y-131937962D01*
X136865296Y-131744444D01*
X136718993Y-131269326D01*
X136578503Y-130816096D01*
X136445664Y-130390498D01*
X136322311Y-129998279D01*
X136210281Y-129645183D01*
X136111410Y-129336956D01*
X136027535Y-129079342D01*
X135960492Y-128878086D01*
X135912116Y-128738934D01*
X135884246Y-128667631D01*
X135879182Y-128659349D01*
X135821936Y-128647275D01*
X135703121Y-128638166D01*
X135537990Y-128631949D01*
X135341796Y-128628551D01*
X135129791Y-128627901D01*
X134917229Y-128629927D01*
X134719364Y-128634555D01*
X134551448Y-128641714D01*
X134428734Y-128651331D01*
X134366476Y-128663334D01*
X134362239Y-128666537D01*
X134184575Y-128666537D01*
X134188462Y-128612805D01*
X134209932Y-128560197D01*
X134257441Y-128522137D01*
X134340583Y-128496315D01*
X134468951Y-128480422D01*
X134652139Y-128472148D01*
X134899741Y-128469182D01*
X135069319Y-128468979D01*
X135312928Y-128470386D01*
X135534014Y-128473975D01*
X135718436Y-128479333D01*
X135852054Y-128486047D01*
X135920728Y-128493704D01*
X135921355Y-128493867D01*
X136005872Y-128546222D01*
X136064443Y-128622310D01*
X136084239Y-128676270D01*
X136125283Y-128800039D01*
X136185658Y-128987508D01*
X136263450Y-129232565D01*
X136356743Y-129529100D01*
X136463623Y-129871001D01*
X136582172Y-130252160D01*
X136710477Y-130666464D01*
X136846622Y-131107804D01*
X136988691Y-131570068D01*
X137002079Y-131613716D01*
X137143437Y-132074104D01*
X137278093Y-132511567D01*
X137404241Y-132920306D01*
X137520077Y-133294523D01*
X137623794Y-133628421D01*
X137713588Y-133916200D01*
X137787653Y-134152064D01*
X137844184Y-134330213D01*
X137881376Y-134444850D01*
X137897422Y-134490177D01*
X137897875Y-134490665D01*
X137910903Y-134452005D01*
X137945379Y-134343341D01*
X137999481Y-134170554D01*
X138071388Y-133939527D01*
X138159278Y-133656143D01*
X138261328Y-133326284D01*
X138375717Y-132955832D01*
X138500624Y-132550671D01*
X138634226Y-132116682D01*
X138774702Y-131659749D01*
X138785931Y-131623198D01*
X138927771Y-131161846D01*
X139063573Y-130720853D01*
X139191433Y-130306361D01*
X139309446Y-129924512D01*
X139415706Y-129581448D01*
X139508308Y-129283311D01*
X139585348Y-129036242D01*
X139644920Y-128846385D01*
X139685120Y-128719881D01*
X139704042Y-128662871D01*
X139704338Y-128662101D01*
X139770248Y-128566947D01*
X139843456Y-128513273D01*
X139893517Y-128503381D01*
X139999233Y-128494830D01*
X140163553Y-128487570D01*
X140389426Y-128481555D01*
X140679801Y-128476735D01*
X141037628Y-128473062D01*
X141465854Y-128470487D01*
X141967429Y-128468962D01*
X142545303Y-128468438D01*
X142570872Y-128468437D01*
X143119599Y-128468509D01*
X143595080Y-128469034D01*
X144003445Y-128470474D01*
X144350823Y-128473290D01*
X144643343Y-128477945D01*
X144887134Y-128484900D01*
X145088326Y-128494617D01*
X145253048Y-128507558D01*
X145387430Y-128524185D01*
X145497600Y-128544960D01*
X145589688Y-128570345D01*
X145669823Y-128600801D01*
X145744135Y-128636791D01*
X145818753Y-128678776D01*
X145884737Y-128718164D01*
X146185873Y-128944251D01*
X146431234Y-129226442D01*
X146619855Y-129563429D01*
X146725271Y-129857500D01*
X146785102Y-130138127D01*
X146822707Y-130468305D01*
X146838454Y-130827217D01*
X146832712Y-131194044D01*
X146805849Y-131547970D01*
X146758234Y-131868176D01*
X146690234Y-132133846D01*
X146684701Y-132149918D01*
X146638377Y-132249619D01*
X146563205Y-132378453D01*
X146470993Y-132519710D01*
X146373548Y-132656684D01*
X146282675Y-132772668D01*
X146210182Y-132850953D01*
X146172054Y-132875362D01*
X146130518Y-132899911D01*
X146053316Y-132959658D01*
X146019201Y-132988256D01*
X145889183Y-133099536D01*
X146049543Y-133373596D01*
X146118696Y-133508935D01*
X146201991Y-133703694D01*
X146300943Y-133961876D01*
X146417066Y-134287487D01*
X146551877Y-134684529D01*
X146596279Y-134818437D01*
X146982656Y-135989218D01*
X147001193Y-133709171D01*
X147161902Y-133709171D01*
X147162139Y-134246959D01*
X147163206Y-134709772D01*
X147165185Y-135102007D01*
X147168158Y-135428062D01*
X147172207Y-135692334D01*
X147177412Y-135899219D01*
X147183857Y-136053115D01*
X147191621Y-136158418D01*
X147200788Y-136219526D01*
X147208875Y-136239250D01*
X147263082Y-136255476D01*
X147378846Y-136268919D01*
X147538386Y-136279228D01*
X147723919Y-136286055D01*
X147917665Y-136289051D01*
X148101842Y-136287867D01*
X148258670Y-136282154D01*
X148370366Y-136271563D01*
X148408160Y-136262785D01*
X148422210Y-136251012D01*
X148434020Y-136223184D01*
X148443782Y-136173004D01*
X148451684Y-136094173D01*
X148457918Y-135980393D01*
X148462674Y-135825365D01*
X148466142Y-135622792D01*
X148468512Y-135366374D01*
X148469974Y-135049813D01*
X148470719Y-134666811D01*
X148470937Y-134211070D01*
X148470937Y-134184543D01*
X148471009Y-133728262D01*
X148471393Y-133344657D01*
X148472347Y-133027025D01*
X148474124Y-132768668D01*
X148476981Y-132562886D01*
X148481171Y-132402977D01*
X148486952Y-132282241D01*
X148494578Y-132193980D01*
X148504304Y-132131491D01*
X148516386Y-132088076D01*
X148531079Y-132057033D01*
X148548639Y-132031663D01*
X148553193Y-132025820D01*
X148635448Y-131921250D01*
X149269538Y-131921250D01*
X149536345Y-131922923D01*
X149737806Y-131930392D01*
X149887923Y-131947326D01*
X150000699Y-131977398D01*
X150090135Y-132024277D01*
X150170232Y-132091636D01*
X150250983Y-132178572D01*
X150375937Y-132320886D01*
X150375937Y-134256255D01*
X150376449Y-134729512D01*
X150378063Y-135128256D01*
X150380895Y-135457341D01*
X150385063Y-135721624D01*
X150390682Y-135925959D01*
X150397869Y-136075203D01*
X150406741Y-136174211D01*
X150417415Y-136227837D01*
X150423562Y-136239249D01*
X150477770Y-136255476D01*
X150593534Y-136268919D01*
X150753073Y-136279228D01*
X150938607Y-136286055D01*
X151132352Y-136289051D01*
X151316530Y-136287867D01*
X151473357Y-136282154D01*
X151585053Y-136271563D01*
X151622847Y-136262785D01*
X151637236Y-136250794D01*
X151649272Y-136222511D01*
X151659160Y-136171471D01*
X151667107Y-136091210D01*
X151673316Y-135975265D01*
X151677995Y-135817171D01*
X151681349Y-135610464D01*
X151683582Y-135348680D01*
X151684900Y-135025356D01*
X151685509Y-134634027D01*
X151685625Y-134287712D01*
X151685786Y-133841510D01*
X151686434Y-133467700D01*
X151687810Y-133159302D01*
X151690157Y-132909333D01*
X151693718Y-132710812D01*
X151698735Y-132556757D01*
X151705451Y-132440187D01*
X151714109Y-132354119D01*
X151724952Y-132291571D01*
X151738222Y-132245564D01*
X151754162Y-132209113D01*
X151758144Y-132201509D01*
X151827607Y-132095981D01*
X151914251Y-132019774D01*
X152031159Y-131968560D01*
X152191412Y-131938010D01*
X152408092Y-131923797D01*
X152605156Y-131921250D01*
X152854954Y-131924210D01*
X153041690Y-131935732D01*
X153181548Y-131959777D01*
X153290706Y-132000303D01*
X153385347Y-132061273D01*
X153466373Y-132132043D01*
X153520830Y-132184050D01*
X153566490Y-132232941D01*
X153604127Y-132285865D01*
X153634516Y-132349968D01*
X153658432Y-132432398D01*
X153676650Y-132540303D01*
X153689945Y-132680830D01*
X153699091Y-132861126D01*
X153704863Y-133088339D01*
X153708037Y-133369616D01*
X153709387Y-133712105D01*
X153709688Y-134122953D01*
X153709687Y-134376354D01*
X153709908Y-134812551D01*
X153710717Y-135175992D01*
X153712335Y-135473293D01*
X153714982Y-135711071D01*
X153718879Y-135895945D01*
X153724244Y-136034532D01*
X153731300Y-136133448D01*
X153740265Y-136199312D01*
X153751360Y-136238739D01*
X153764805Y-136258349D01*
X153772464Y-136262785D01*
X153833700Y-136271607D01*
X153957734Y-136278979D01*
X154127991Y-136284247D01*
X154327897Y-136286755D01*
X154382761Y-136286875D01*
X154617227Y-136284924D01*
X154783441Y-136278379D01*
X154892447Y-136266205D01*
X154955289Y-136247363D01*
X154976556Y-136231115D01*
X154987666Y-136194999D01*
X154996731Y-136112955D01*
X155003826Y-135980496D01*
X155009027Y-135793132D01*
X155012410Y-135546375D01*
X155014050Y-135235736D01*
X155014023Y-134856727D01*
X155012404Y-134404860D01*
X155011181Y-134177287D01*
X154999531Y-132179218D01*
X154850188Y-131866438D01*
X154656763Y-131547317D01*
X154404899Y-131266401D01*
X154107790Y-131034263D01*
X153778632Y-130861477D01*
X153479868Y-130768386D01*
X153358389Y-130752622D01*
X153170812Y-130741665D01*
X152930292Y-130735942D01*
X152649984Y-130735880D01*
X152529847Y-130737533D01*
X152268007Y-130742570D01*
X152071872Y-130748312D01*
X151927778Y-130756508D01*
X151822063Y-130768908D01*
X151741062Y-130787263D01*
X151671113Y-130813322D01*
X151598552Y-130848835D01*
X151578429Y-130859382D01*
X151440367Y-130946692D01*
X151314357Y-131050339D01*
X151260929Y-131107338D01*
X151181960Y-131191985D01*
X151113789Y-131241362D01*
X151094750Y-131246561D01*
X151037726Y-131221217D01*
X150946493Y-131155553D01*
X150864348Y-131084967D01*
X150724143Y-130973293D01*
X150562828Y-130869329D01*
X150482878Y-130827386D01*
X150425172Y-130801246D01*
X150370268Y-130780344D01*
X150308922Y-130764098D01*
X150231886Y-130751922D01*
X150129917Y-130743235D01*
X149993769Y-130737450D01*
X149814196Y-130733986D01*
X149581953Y-130732258D01*
X149287794Y-130731682D01*
X148967031Y-130731665D01*
X148609810Y-130731881D01*
X148322998Y-130732733D01*
X148097630Y-130734769D01*
X147924739Y-130738538D01*
X147795360Y-130744588D01*
X147700527Y-130753466D01*
X147631275Y-130765721D01*
X147578637Y-130781902D01*
X147533648Y-130802555D01*
X147499402Y-130821383D01*
X147371441Y-130920707D01*
X147264305Y-131048456D01*
X147252008Y-131068777D01*
X147162555Y-131226718D01*
X147161902Y-133709171D01*
X147001193Y-133709171D01*
X147002500Y-133548437D01*
X147022343Y-131107656D01*
G37*
D12*
X164580000Y-149705000D02*
X164580000Y-147165000D01*
X164580000Y-149705000D02*
X167120000Y-149705000D01*
X164830000Y-149455000D02*
X164830000Y-140105000D01*
X164830000Y-140105000D02*
X185690000Y-140105000D01*
X185690000Y-149455000D02*
X164830000Y-149455000D01*
X185690000Y-140105000D02*
X185690000Y-149455000D01*
X209650000Y-127520000D02*
X217070000Y-127520000D01*
X209650000Y-136640000D02*
X209650000Y-127520000D01*
X212049000Y-130517000D02*
X212235000Y-130704000D01*
X211797000Y-130768000D02*
X211941000Y-130912000D01*
X214484000Y-133456000D02*
X214671000Y-133643000D01*
X217070000Y-136640000D02*
X217070000Y-127520000D01*
X209650000Y-136640000D02*
X217070000Y-136640000D01*
X214779000Y-133248000D02*
X214923000Y-133392000D01*
X215420000Y-132080000D02*
G75*
G03*
X215420000Y-132080000I-2060000J0D01*
G01*
X188970000Y-145380000D02*
X188560000Y-145380000D01*
X188560000Y-151800000D02*
X188840000Y-151800000D01*
X194980000Y-145380000D02*
X194570000Y-145380000D01*
X194570000Y-151800000D02*
X194980000Y-151800000D01*
X190570000Y-151800000D02*
X192970000Y-151800000D01*
X188560000Y-145380000D02*
X188560000Y-151800000D01*
X194980000Y-151800000D02*
X194980000Y-145380000D01*
X192970000Y-145380000D02*
X190570000Y-145380000D01*
X196420000Y-82120000D02*
X199820000Y-82120000D01*
X199820000Y-85520000D02*
X196420000Y-85520000D01*
X196420000Y-85520000D02*
X196420000Y-82120000D01*
X199820000Y-82120000D02*
X199820000Y-85520000D01*
X141978748Y-94715000D02*
X142501252Y-94715000D01*
X141978748Y-93245000D02*
X142501252Y-93245000D01*
X163295000Y-96258748D02*
X163295000Y-96781252D01*
X161825000Y-96258748D02*
X161825000Y-96781252D01*
X168480000Y-133780000D02*
X168480000Y-130380000D01*
X171880000Y-130380000D02*
X171880000Y-133780000D01*
X168480000Y-130380000D02*
X171880000Y-130380000D01*
X171880000Y-133780000D02*
X168480000Y-133780000D01*
X135830000Y-74930000D02*
X135830000Y-80070000D01*
X135830000Y-72330000D02*
X137160000Y-72330000D01*
X138490000Y-74930000D02*
X138490000Y-80070000D01*
X135830000Y-80070000D02*
X138490000Y-80070000D01*
X135830000Y-74930000D02*
X138490000Y-74930000D01*
X135830000Y-73660000D02*
X135830000Y-72330000D01*
X170150000Y-104490000D02*
X170150000Y-105440000D01*
X180370000Y-96170000D02*
X180370000Y-95220000D01*
X170150000Y-95220000D02*
X171100000Y-95220000D01*
X180370000Y-105440000D02*
X179420000Y-105440000D01*
X180370000Y-95220000D02*
X179420000Y-95220000D01*
X170150000Y-105440000D02*
X171100000Y-105440000D01*
X179420000Y-95220000D02*
X179420000Y-93880000D01*
X180370000Y-104490000D02*
X180370000Y-105440000D01*
X170150000Y-96170000D02*
X170150000Y-95220000D01*
X162332936Y-115035000D02*
X162787064Y-115035000D01*
X162332936Y-113565000D02*
X162787064Y-113565000D01*
X154940000Y-115860000D02*
X154290000Y-115860000D01*
X154940000Y-112740000D02*
X154290000Y-112740000D01*
X154940000Y-115860000D02*
X156615000Y-115860000D01*
X154940000Y-112740000D02*
X155590000Y-112740000D01*
X138660000Y-105400000D02*
G75*
G03*
X135660001Y-105400000I-1499999J-6400010D01*
G01*
X143390000Y-111800000D02*
G75*
G03*
X143390000Y-111800000I-6230000J0D01*
G01*
X160755000Y-105468748D02*
X160755000Y-105991252D01*
X159285000Y-105468748D02*
X159285000Y-105991252D01*
X173931252Y-90705000D02*
X173408748Y-90705000D01*
X173931252Y-92175000D02*
X173408748Y-92175000D01*
X154940000Y-57150000D02*
X154940000Y-64770000D01*
X154940000Y-63500000D02*
X180340000Y-63500000D01*
X180340000Y-57150000D02*
X180340000Y-64770000D01*
X154940000Y-57150000D02*
X180340000Y-57150000D01*
X154940000Y-64770000D02*
X180340000Y-64770000D01*
X152400000Y-64770000D02*
X152400000Y-57150000D01*
X142240000Y-57150000D02*
X142240000Y-64770000D01*
X142240000Y-64770000D02*
X152400000Y-64770000D01*
X142240000Y-58420000D02*
X152400000Y-58420000D01*
X152400000Y-57150000D02*
X142240000Y-57150000D01*
X191235000Y-95191252D02*
X191235000Y-94668748D01*
X189765000Y-95191252D02*
X189765000Y-94668748D01*
X178488748Y-115035000D02*
X179011252Y-115035000D01*
X178488748Y-113565000D02*
X179011252Y-113565000D01*
X189660000Y-71960000D02*
X189660000Y-75360000D01*
X186260000Y-75360000D02*
X186260000Y-71960000D01*
X189660000Y-75360000D02*
X186260000Y-75360000D01*
X186260000Y-71960000D02*
X189660000Y-71960000D01*
X165835000Y-96258748D02*
X165835000Y-96781252D01*
X164365000Y-96258748D02*
X164365000Y-96781252D01*
X195352936Y-98325000D02*
X195807064Y-98325000D01*
X195352936Y-99795000D02*
X195807064Y-99795000D01*
X186155000Y-137387064D02*
X186155000Y-136932936D01*
X184685000Y-137387064D02*
X184685000Y-136932936D01*
X193301252Y-137895000D02*
X192778748Y-137895000D01*
X193301252Y-136425000D02*
X192778748Y-136425000D01*
X163295000Y-105468748D02*
X163295000Y-105991252D01*
X161825000Y-105468748D02*
X161825000Y-105991252D01*
X202972936Y-105945000D02*
X203427064Y-105945000D01*
X202972936Y-107415000D02*
X203427064Y-107415000D01*
X173931252Y-89635000D02*
X173408748Y-89635000D01*
X173931252Y-88165000D02*
X173408748Y-88165000D01*
X202972936Y-104875000D02*
X203427064Y-104875000D01*
X202972936Y-103405000D02*
X203427064Y-103405000D01*
X179500000Y-133780000D02*
X176100000Y-133780000D01*
X176100000Y-133780000D02*
X176100000Y-130380000D01*
X179500000Y-130380000D02*
X179500000Y-133780000D01*
X176100000Y-130380000D02*
X179500000Y-130380000D01*
X164365000Y-105468748D02*
X164365000Y-105991252D01*
X165835000Y-105468748D02*
X165835000Y-105991252D01*
X141978748Y-72925000D02*
X142501252Y-72925000D01*
X141978748Y-74395000D02*
X142501252Y-74395000D01*
X159285000Y-96258748D02*
X159285000Y-96781252D01*
X160755000Y-96258748D02*
X160755000Y-96781252D01*
X198120000Y-58420000D02*
X182880000Y-58420000D01*
X198120000Y-57150000D02*
X198120000Y-64770000D01*
X198120000Y-57150000D02*
X182880000Y-57150000D01*
X182880000Y-57150000D02*
X182880000Y-64770000D01*
X198120000Y-64770000D02*
X182880000Y-64770000D01*
X178488748Y-109955000D02*
X179011252Y-109955000D01*
X178488748Y-108485000D02*
X179011252Y-108485000D01*
X177065000Y-68352936D02*
X177065000Y-68807064D01*
X178535000Y-68352936D02*
X178535000Y-68807064D01*
X189660000Y-77040000D02*
X189660000Y-80440000D01*
X186260000Y-77040000D02*
X189660000Y-77040000D01*
X189660000Y-80440000D02*
X186260000Y-80440000D01*
X186260000Y-80440000D02*
X186260000Y-77040000D01*
X141978748Y-88165000D02*
X142501252Y-88165000D01*
X141978748Y-89635000D02*
X142501252Y-89635000D01*
X146585000Y-111612936D02*
X146585000Y-112067064D01*
X148055000Y-111612936D02*
X148055000Y-112067064D01*
X209550000Y-116840000D02*
X209550000Y-101600000D01*
X215900000Y-116840000D02*
X215900000Y-101600000D01*
X217170000Y-116840000D02*
X217170000Y-101600000D01*
X217170000Y-101600000D02*
X209550000Y-101600000D01*
X217170000Y-116840000D02*
X209550000Y-116840000D01*
X141978748Y-78005000D02*
X142501252Y-78005000D01*
X141978748Y-79475000D02*
X142501252Y-79475000D01*
X207440000Y-82120000D02*
X207440000Y-85520000D01*
X204040000Y-82120000D02*
X207440000Y-82120000D01*
X204040000Y-85520000D02*
X204040000Y-82120000D01*
X207440000Y-85520000D02*
X204040000Y-85520000D01*
X188695000Y-95191252D02*
X188695000Y-94668748D01*
X187225000Y-95191252D02*
X187225000Y-94668748D01*
X135460000Y-99900000D02*
X138860000Y-99900000D01*
X135460000Y-103300000D02*
X135460000Y-99900000D01*
X138860000Y-99900000D02*
X138860000Y-103300000D01*
X138860000Y-103300000D02*
X135460000Y-103300000D01*
X186155000Y-68352936D02*
X186155000Y-68807064D01*
X184685000Y-68352936D02*
X184685000Y-68807064D01*
X178488748Y-111025000D02*
X179011252Y-111025000D01*
X178488748Y-112495000D02*
X179011252Y-112495000D01*
X197280000Y-122760000D02*
X197280000Y-126160000D01*
X193880000Y-122760000D02*
X197280000Y-122760000D01*
X197280000Y-126160000D02*
X193880000Y-126160000D01*
X193880000Y-126160000D02*
X193880000Y-122760000D01*
X135830000Y-90170000D02*
X138490000Y-90170000D01*
X138490000Y-90170000D02*
X138490000Y-95310000D01*
X135830000Y-88900000D02*
X135830000Y-87570000D01*
X135830000Y-90170000D02*
X135830000Y-95310000D01*
X135830000Y-95310000D02*
X138490000Y-95310000D01*
X135830000Y-87570000D02*
X137160000Y-87570000D01*
X184685000Y-95191252D02*
X184685000Y-94668748D01*
X186155000Y-95191252D02*
X186155000Y-94668748D01*
M02*
